<svg width="700" height="700" viewBox="0 0 700 700" fill="none" xmlns="http://www.w3.org/2000/svg">
<path d="M132.227 637.58C262.122 720.807 472.706 720.807 602.585 637.58C732.464 554.352 732.479 419.424 602.585 336.197C472.691 252.97 262.122 252.97 132.227 336.197C2.33281 419.424 2.30181 554.352 132.227 637.58Z" fill="#F5F5F5"/>
<path d="M481.635 638.321C501.168 649.73 532.793 649.73 552.357 638.321C571.921 626.912 571.89 608.392 552.357 596.983C532.824 585.575 501.199 585.575 481.635 596.983C462.071 608.392 462.118 626.912 481.635 638.321Z" fill="#E0E0E0"/>
<path d="M72.6981 364.871C72.6981 364.871 72.9152 334.315 60.0482 315.738C47.1812 297.16 31.6323 300.526 26.0825 304.063C20.5326 307.599 16.7811 317.373 26.3615 324.522C35.942 331.672 56.1726 345.781 59.5366 358.425L72.6981 364.871Z" fill="#BA68C8"/>
<path d="M31.9114 307.466C40.2052 310.471 63.9858 326.766 66.6987 357.456" stroke="white" stroke-miterlimit="10" stroke-linecap="round"/>
<path d="M61.9395 351.2C58.715 342.206 55.0719 338.156 44.5923 340.305C34.1127 342.453 35.6629 342.206 22.7804 338.099C9.89797 333.992 1.07711 340.571 0.0694599 346.636C-0.953697 353.235 9.54141 356.144 17.3856 360.422C25.2298 364.7 30.5936 370.177 28.7179 378.828C27.1676 386.244 28.1288 392.519 37.4457 395.2C45.724 397.596 54.4983 391.739 57.9708 401.456C59.9241 406.989 67.6598 413.036 74.7754 407.864C87.0843 392.652 83.6273 374.17 75.7211 361.981C72.233 356.581 63.8773 356.6 61.9395 351.2Z" fill="#BA68C8"/>
<path opacity="0.2" d="M61.9395 351.2C58.715 342.206 55.0719 338.156 44.5923 340.305C34.1127 342.453 35.6629 342.206 22.7804 338.099C9.89797 333.992 1.07711 340.571 0.0694599 346.636C-0.953697 353.235 9.54141 356.144 17.3856 360.422C25.2298 364.7 30.5936 370.177 28.7179 378.828C27.1676 386.244 28.1288 392.519 37.4457 395.2C45.724 397.596 54.4983 391.739 57.9708 401.456C59.9241 406.989 67.6598 413.036 74.7754 407.864C87.0843 392.652 83.6273 374.17 75.7211 361.981C72.233 356.581 63.8773 356.6 61.9395 351.2Z" fill="black"/>
<path d="M9.54138 343.271C22.9819 344.45 62.327 364.187 72.357 391.131" stroke="white" stroke-miterlimit="10" stroke-linecap="round"/>
<path d="M38.0968 379.912C43.6388 374.279 50.4 370.75 57.5523 369.758" stroke="white" stroke-miterlimit="10" stroke-linecap="round"/>
<path d="M195.787 654.009C191.291 657.184 181.633 657.697 179.401 648.114C177.169 638.531 177.665 633.739 171.65 632.085C165.635 630.43 154.365 637.561 149.946 626.856C145.528 616.15 154.597 610.674 149.032 604.818C143.466 598.961 133.281 592.534 138.351 584.928C143.42 577.322 150.024 579.433 155.636 582.057C161.511 584.776 170.456 582.609 178.161 583.255C185.866 583.902 187.602 591.317 187.788 597.079C187.974 602.84 190.687 609.457 197.384 607.974L195.787 654.009Z" fill="#BA68C8"/>
<path d="M144.738 586.506C162.86 589.149 188.795 615.238 196.547 632.75" stroke="white" stroke-miterlimit="10" stroke-linecap="round"/>
<path d="M179.82 590.519C179.82 590.519 179.928 604.076 178.176 607.632" stroke="white" stroke-miterlimit="10" stroke-linecap="round"/>
<path d="M156.923 618.584C156.923 618.584 169.929 615.96 182.207 611.872" stroke="white" stroke-miterlimit="10" stroke-linecap="round"/>
<path d="M559.752 293.985C568.464 293.985 572.154 290.962 574.34 284.021C576.525 277.081 575.688 270.007 582.788 267.269C589.889 264.531 594.121 266.243 597.655 257.591C601.19 248.939 592.105 238.405 596.477 232.396C600.849 226.388 610.972 220.436 608.879 213.001C607.53 207.982 603.236 206.137 599.252 206.422C596.702 206.844 594.295 208.113 592.291 210.092C590.11 211.92 587.538 212.918 584.897 212.963C582.311 213.138 579.717 213.036 577.146 212.659C575.352 212.352 573.524 212.6 571.828 213.382C568.883 215.036 567.55 219.466 567.891 223.402C568.325 226.377 568.325 229.422 567.891 232.396C567.069 236.865 562.341 238.101 559.736 241.428C553.706 249.034 558.062 262.478 558.651 271.852C559.085 278.241 559.349 287.653 559.752 293.985Z" fill="#BA68C8"/>
<path d="M602.6 213.001C595.376 215.378 567.054 244.528 561.302 274.856" stroke="white" stroke-miterlimit="10" stroke-linecap="round"/>
<path d="M575.487 219.314C575.487 219.314 579.75 227.947 579.595 235.287" stroke="white" stroke-miterlimit="10" stroke-linecap="round"/>
<path d="M591.222 252.476C591.222 252.476 578.122 247.152 568.945 252.932" stroke="white" stroke-miterlimit="10" stroke-linecap="round"/>
<path d="M236.326 284.363L226.404 283.165V15.1539L236.326 16.3328V284.363Z" fill="#E0E0E0"/>
<path d="M200.081 110.779L162.348 221.463L137.545 196.877C136.658 196 135.523 195.59 134.391 195.736C133.258 195.883 132.218 196.573 131.499 197.657C131.28 198.005 131.093 198.381 130.941 198.778L75.0081 349.298V369.568C75.0081 372.002 76.4033 372.991 78.1085 371.774L100.013 356.258L223.304 268.962C224.204 268.234 224.954 267.259 225.492 266.113C226.03 264.968 226.343 263.684 226.404 262.363V143.142L207.584 109.828C206.938 108.679 205.947 107.891 204.828 107.638C203.709 107.385 202.554 107.687 201.616 108.478C200.93 109.041 200.396 109.842 200.081 110.779Z" fill="#E0E0E0"/>
<path d="M86.6504 130.877V182.882C91.4096 185.012 97.5021 184.004 104.122 179.307C119.391 168.488 131.778 142.191 131.778 120.552C131.778 110.55 129.142 103.325 124.786 99.4839L89.7509 124.203C88.8388 124.933 88.0818 125.919 87.5426 127.08C87.0034 128.241 86.6975 129.543 86.6504 130.877Z" fill="#E0E0E0"/>
<path d="M217.63 116.198L206.174 108.212V124.317L217.63 116.198Z" fill="#E0E0E0"/>
<path d="M148.551 204.445L136.925 196.364L136.739 212.374L148.551 204.445Z" fill="#E0E0E0"/>
<path d="M243.845 10.6855C243.862 10.5276 243.862 10.3679 243.845 10.2101C243.673 9.09479 243.319 8.0335 242.805 7.08943C242.291 6.14536 241.627 5.3378 240.853 4.71486L235.397 0.911927C234.436 0.312471 233.374 0 232.296 0C231.218 0 230.156 0.312471 229.196 0.911927L72.3425 111.9C71.421 112.609 70.6588 113.59 70.1257 114.753C69.5648 115.905 69.2551 117.214 69.2266 118.556V406.609C69.2882 407.929 69.6007 409.213 70.139 410.359C70.6773 411.504 71.4266 412.48 72.327 413.207L77.7529 417.01C78.5964 417.534 79.5189 417.84 80.463 417.909C81.407 417.978 82.3525 417.807 83.2407 417.409L83.4577 417.314L83.9693 417.01L152.955 368.313L240.838 306.097C241.74 305.372 242.491 304.397 243.029 303.251C243.568 302.105 243.879 300.82 243.938 299.499V11.2939C243.88 11.0987 243.849 10.8932 243.845 10.6855ZM236.327 271.719C236.265 273.039 235.953 274.323 235.414 275.469C234.876 276.614 234.127 277.59 233.226 278.317L153.032 335.133L89.7517 379.931C88.0464 381.148 86.6512 380.159 86.6512 377.725V130.877C86.7129 129.557 87.0254 128.273 87.5637 127.127C88.102 125.982 88.8513 125.006 89.7517 124.279L233.211 22.6647C234.932 21.4287 236.311 22.4175 236.311 24.8514L236.327 271.719Z" fill="#F5F5F5"/>
<path d="M153.031 335.133C153.031 346.789 152.938 357.95 152.892 368.218L83.9373 417.086L83.4258 417.39L83.2087 417.485C82.3205 417.883 81.3751 418.054 80.431 417.985C79.4869 417.916 78.5645 417.61 77.7209 417.086L72.2951 413.283C71.3947 412.556 70.6454 411.58 70.107 410.435C69.5687 409.289 69.2562 408.005 69.1946 406.685V118.556C69.2232 117.214 69.5328 115.905 70.0937 114.753L81.736 123.024L87.5804 127.15C87.0068 128.296 86.6912 129.609 86.6658 130.953V377.82C86.6658 380.254 88.061 381.243 89.7662 380.026L153.031 335.133Z" fill="#E0E0E0"/>
<path d="M211.723 118.879L173.991 229.506L149.187 204.92C148.747 204.482 148.241 204.155 147.697 203.957C147.154 203.76 146.584 203.697 146.021 203.771C145.457 203.845 144.911 204.056 144.414 204.39C143.917 204.724 143.479 205.176 143.125 205.719C142.904 206.057 142.716 206.428 142.567 206.822L86.6348 357.38V396.835C86.6348 399.25 88.03 400.239 89.7352 399.022L111.64 383.525L233.225 297.388C234.126 296.661 234.875 295.686 235.413 294.54C235.952 293.395 236.264 292.11 236.326 290.79V152.402L219.273 117.909C218.632 116.75 217.641 115.95 216.519 115.686C215.397 115.422 214.235 115.716 213.289 116.502C212.59 117.09 212.046 117.916 211.723 118.879Z" fill="#F5F5F5"/>
<path d="M243.844 10.6854C243.861 10.5276 243.861 10.3679 243.844 10.2101C243.472 8.61282 242.294 8.08041 240.852 9.1072L83.9374 120.172C83.0256 120.884 82.2676 121.856 81.7278 123.005C81.188 124.154 80.8824 125.445 80.8369 126.77V414.842C80.8369 416.915 81.8601 417.941 83.2088 417.447H83.4258L83.9374 417.143L152.954 368.313L240.837 306.097C241.739 305.372 242.49 304.397 243.028 303.251C243.567 302.105 243.878 300.82 243.937 299.499V11.2939C243.88 11.0987 243.848 10.8931 243.844 10.6854ZM236.326 290.733C236.264 292.053 235.952 293.338 235.413 294.483C234.875 295.629 234.126 296.604 233.225 297.331L153.031 354.147L89.7508 398.946C88.0455 400.163 86.6503 399.174 86.6503 396.74V130.877C86.712 129.557 87.0244 128.273 87.5628 127.127C88.1011 125.981 88.8504 125.006 89.7508 124.279L233.21 22.6647C234.931 21.4287 236.31 22.4175 236.31 24.8513L236.326 290.733Z" fill="#F0F0F0"/>
<path d="M277.112 313.228L267.191 312.03V44.0182L277.112 45.1971V313.228Z" fill="#E0E0E0"/>
<path d="M240.868 139.643L203.135 250.422L178.331 225.836C177.442 224.962 176.307 224.555 175.174 224.705C174.041 224.854 173.002 225.548 172.285 226.635C172.067 226.976 171.88 227.346 171.727 227.738L115.795 378.144V398.413C115.795 400.847 117.19 401.836 118.895 400.619L140.8 385.103L264.09 297.807C264.993 297.082 265.743 296.107 266.282 294.961C266.82 293.815 267.132 292.53 267.191 291.209V171.987L248.371 138.673C247.933 137.893 247.331 137.272 246.63 136.876C245.928 136.48 245.153 136.323 244.384 136.423C243.616 136.522 242.884 136.873 242.265 137.44C241.647 138.007 241.164 138.768 240.868 139.643Z" fill="#E0E0E0"/>
<path d="M127.437 159.741V211.746C132.196 213.876 138.289 212.868 144.908 208.172C160.132 197.352 172.533 171.055 172.533 149.416C172.533 139.415 169.898 132.189 165.542 128.348L130.506 153.067C129.603 153.805 128.854 154.794 128.32 155.954C127.787 157.113 127.484 158.411 127.437 159.741Z" fill="#E0E0E0"/>
<path d="M258.417 145.062L246.96 137.076V153.181L258.417 145.062Z" fill="#E0E0E0"/>
<path d="M189.338 233.309L177.711 225.228L177.525 241.238L189.338 233.309Z" fill="#E0E0E0"/>
<path d="M284.616 39.5497C284.632 39.3919 284.632 39.2322 284.616 39.0743C284.432 37.9741 284.073 36.9291 283.56 35.9991C283.047 35.0692 282.389 34.2727 281.624 33.6552L276.167 29.8522C275.207 29.2528 274.144 28.9403 273.066 28.9403C271.989 28.9403 270.926 29.2528 269.966 29.8522L113.128 140.765C112.21 141.478 111.449 142.458 110.912 143.617C110.355 144.771 110.046 146.079 110.012 147.42V435.473C110.072 436.794 110.383 438.079 110.922 439.225C111.46 440.371 112.211 441.346 113.113 442.071L118.539 445.874C119.381 446.403 120.304 446.711 121.249 446.78C122.193 446.849 123.139 446.676 124.027 446.273L124.244 446.178L124.755 445.874L193.741 397.082L281.624 334.866C282.526 334.141 283.277 333.167 283.815 332.021C284.354 330.874 284.665 329.589 284.724 328.268V40.1582C284.661 39.964 284.624 39.7585 284.616 39.5497ZM277.113 300.583C277.053 301.904 276.742 303.189 276.203 304.335C275.665 305.481 274.914 306.456 274.012 307.181L193.818 363.997L130.538 408.795C128.832 410.012 127.437 409.024 127.437 406.59V159.741C127.5 158.422 127.813 157.138 128.351 155.993C128.889 154.847 129.638 153.872 130.538 153.143L273.997 51.5289C275.717 50.293 277.097 51.2818 277.097 53.7156L277.113 300.583Z" fill="#F5F5F5"/>
<path d="M193.818 363.997C193.818 375.653 193.725 386.814 193.679 397.082L124.724 445.95L124.213 446.254L123.996 446.349C123.108 446.752 122.162 446.925 121.218 446.856C120.273 446.787 119.35 446.479 118.508 445.95L113.082 442.147C112.18 441.422 111.429 440.447 110.891 439.301C110.352 438.155 110.041 436.87 109.981 435.549V147.42C110.015 146.079 110.324 144.771 110.881 143.617L122.523 151.869L128.367 155.995C127.799 157.145 127.484 158.455 127.453 159.798V406.59C127.453 409.024 128.848 410.012 130.553 408.795L193.818 363.997Z" fill="#E0E0E0"/>
<path d="M252.51 147.743L214.778 258.427L189.974 233.841C189.082 232.966 187.944 232.559 186.809 232.708C185.673 232.858 184.632 233.552 183.912 234.64C183.697 234.985 183.511 235.354 183.354 235.743L127.422 386.244V425.604C127.422 428.019 128.817 429.008 130.522 427.791L152.38 412.294L273.966 326.158C274.868 325.433 275.618 324.458 276.157 323.312C276.695 322.166 277.007 320.88 277.066 319.56V181.266L260.013 146.773C259.369 145.617 258.378 144.821 257.256 144.561C256.134 144.301 254.973 144.597 254.03 145.385C253.351 145.979 252.825 146.797 252.51 147.743Z" fill="#F5F5F5"/>
<path d="M284.616 39.5497C284.632 39.3919 284.632 39.2322 284.616 39.0744C284.244 37.4771 283.066 36.9447 281.624 37.9715L124.724 149.036C123.815 149.752 123.059 150.725 122.52 151.873C121.98 153.021 121.673 154.311 121.624 155.634V443.706C121.624 445.779 122.647 446.806 123.996 446.311H124.213L124.724 446.007L193.741 397.177L281.624 334.961C282.526 334.236 283.277 333.262 283.815 332.116C284.354 330.969 284.665 329.684 284.724 328.363V40.1582C284.661 39.9641 284.624 39.7585 284.616 39.5497ZM277.113 319.598C277.053 320.918 276.742 322.204 276.203 323.35C275.665 324.496 274.914 325.471 274.012 326.196L193.818 383.012L130.538 427.81C128.832 429.027 127.437 428.038 127.437 425.604V159.741C127.5 158.422 127.813 157.138 128.351 155.993C128.889 154.847 129.638 153.872 130.538 153.143L273.997 51.529C275.717 50.293 277.097 51.2818 277.097 53.7157L277.113 319.598Z" fill="#F0F0F0"/>
<path d="M317.915 342.073L307.993 340.875V72.8633L317.915 74.0422V342.073Z" fill="#263238"/>
<path d="M281.67 168.488L243.938 279.172L219.134 254.586C218.247 253.71 217.113 253.3 215.98 253.446C214.847 253.592 213.807 254.282 213.088 255.366C212.869 255.714 212.682 256.09 212.53 256.488L156.597 406.989V427.259C156.597 429.692 157.992 430.681 159.698 429.464L181.603 413.948L304.893 326.652C305.795 325.927 306.546 324.952 307.084 323.806C307.623 322.66 307.934 321.375 307.993 320.054V200.832L289.174 167.518C288.735 166.738 288.134 166.117 287.432 165.721C286.731 165.325 285.955 165.168 285.187 165.268C284.419 165.367 283.687 165.719 283.068 166.285C282.449 166.852 281.966 167.613 281.67 168.488Z" fill="#BA68C8"/>
<path d="M168.24 188.587V240.592C172.999 242.721 179.091 241.714 185.711 237.017C200.981 226.198 213.367 199.9 213.367 178.262C213.367 168.26 210.732 161.034 206.375 157.193L171.34 181.912C170.429 182.644 169.672 183.63 169.133 184.791C168.594 185.951 168.288 187.252 168.24 188.587Z" fill="#BA68C8"/>
<path opacity="0.5" d="M281.67 168.488L243.938 279.172L219.134 254.586C218.247 253.71 217.113 253.3 215.98 253.446C214.847 253.592 213.807 254.282 213.088 255.366C212.869 255.714 212.682 256.09 212.53 256.488L156.597 406.989V427.259C156.597 429.692 157.992 430.681 159.698 429.464L181.603 413.948L304.893 326.652C305.795 325.927 306.546 324.952 307.084 323.806C307.623 322.66 307.934 321.375 307.993 320.054V200.832L289.174 167.518C288.735 166.738 288.134 166.117 287.432 165.721C286.731 165.325 285.955 165.168 285.187 165.268C284.419 165.367 283.687 165.719 283.068 166.285C282.449 166.852 281.966 167.613 281.67 168.488Z" fill="white"/>
<path d="M299.219 173.907L287.763 165.921V182.027L299.219 173.907Z" fill="#BA68C8"/>
<path d="M230.14 262.154L218.514 254.073L218.328 270.083L230.14 262.154Z" fill="#BA68C8"/>
<path opacity="0.5" d="M299.219 173.907L287.763 165.921V182.027L299.219 173.907Z" fill="white"/>
<path opacity="0.5" d="M230.14 262.154L218.514 254.073L218.328 270.083L230.14 262.154Z" fill="white"/>
<path d="M325.418 68.3949C325.434 68.2371 325.434 68.0774 325.418 67.9196C325.242 66.8057 324.887 65.746 324.373 64.8025C323.859 63.859 323.197 63.0505 322.426 62.4243L316.969 58.6214C316.009 58.0219 314.946 57.7095 313.869 57.7095C312.791 57.7095 311.729 58.0219 310.768 58.6214L153.931 169.61C153.009 170.319 152.247 171.299 151.714 172.462C151.155 173.615 150.846 174.924 150.815 176.265V464.318C150.874 465.639 151.185 466.924 151.724 468.07C152.262 469.216 153.013 470.191 153.915 470.916L159.341 474.719C160.185 475.244 161.107 475.55 162.051 475.618C162.995 475.687 163.941 475.517 164.829 475.118L165.046 475.023L165.557 474.719L234.543 425.928L322.426 363.712C323.328 362.987 324.079 362.012 324.617 360.866C325.156 359.72 325.467 358.434 325.527 357.113V69.0034C325.463 68.8093 325.427 68.6037 325.418 68.3949ZM317.915 329.428C317.856 330.749 317.544 332.034 317.006 333.18C316.467 334.326 315.716 335.301 314.814 336.026L234.621 392.842L171.34 437.641C169.635 438.858 168.239 437.869 168.239 435.435V188.587C168.301 187.266 168.613 185.982 169.152 184.837C169.69 183.691 170.439 182.716 171.34 181.988L314.799 80.3742C316.52 79.1382 317.899 80.127 317.899 82.5609L317.915 329.428Z" fill="#455A64"/>
<path d="M234.621 392.842C234.621 404.498 234.528 415.66 234.481 425.928L165.526 474.795L165.015 475.099H164.798C163.91 475.498 162.964 475.668 162.02 475.599C161.076 475.531 160.154 475.225 159.31 474.7L153.884 470.897C152.982 470.172 152.231 469.197 151.693 468.051C151.154 466.905 150.843 465.62 150.784 464.299V176.265C150.815 174.924 151.124 173.615 151.683 172.462L163.325 180.715L169.17 184.841C168.596 185.987 168.28 187.299 168.255 188.644V435.435C168.255 437.869 169.65 438.857 171.355 437.641L234.621 392.842Z" fill="#263238"/>
<path opacity="0.7" d="M168.24 188.587V240.592C172.999 242.721 179.091 241.714 185.711 237.017C200.981 226.198 213.367 199.9 213.367 178.262C213.367 168.26 210.732 161.034 206.375 157.193L171.34 181.912C170.429 182.644 169.672 183.63 169.133 184.791C168.594 185.951 168.288 187.252 168.24 188.587Z" fill="white"/>
<path d="M293.313 176.588L255.58 287.273L230.776 262.687C230.335 262.251 229.829 261.926 229.286 261.73C228.743 261.534 228.173 261.472 227.61 261.546C227.047 261.62 226.502 261.829 226.005 262.162C225.508 262.495 225.07 262.945 224.715 263.485C224.496 263.827 224.309 264.197 224.156 264.588L168.224 415.089V454.449C168.224 456.864 169.619 457.853 171.324 456.636L193.229 441.139L314.814 355.003C315.715 354.276 316.464 353.3 317.002 352.155C317.541 351.009 317.853 349.725 317.915 348.405V210.111L300.862 175.619C300.424 174.829 299.82 174.2 299.113 173.799C298.407 173.397 297.625 173.237 296.851 173.336C296.077 173.436 295.339 173.791 294.716 174.363C294.093 174.936 293.608 175.705 293.313 176.588Z" fill="#BA68C8"/>
<path d="M325.418 68.3949C325.434 68.2371 325.434 68.0774 325.418 67.9196C325.046 66.3223 323.868 65.7899 322.426 66.8167L165.527 177.881C164.617 178.596 163.86 179.568 163.32 180.717C162.781 181.865 162.474 183.155 162.426 184.479V472.551C162.426 474.624 163.449 475.651 164.798 475.156L165.015 475.061L165.527 474.757L234.543 425.927L322.426 363.712C323.328 362.987 324.079 362.012 324.617 360.866C325.156 359.72 325.467 358.434 325.527 357.113V69.0034C325.463 68.8093 325.427 68.6037 325.418 68.3949ZM317.915 348.443C317.856 349.764 317.544 351.049 317.006 352.195C316.467 353.341 315.717 354.316 314.814 355.041L234.621 411.857L171.34 456.655C169.635 457.872 168.239 456.883 168.239 454.449V188.587C168.301 187.266 168.614 185.982 169.152 184.837C169.69 183.691 170.439 182.716 171.34 181.988L314.799 80.3742C316.52 79.1382 317.899 80.127 317.899 82.5609L317.915 348.443Z" fill="#37474F"/>
<path d="M205.088 531.402V655.435C205.088 658.572 206.639 660.017 208.793 659.047C207.481 659.684 206.073 659.974 204.663 659.899C203.252 659.823 201.871 659.384 200.608 658.61L196.965 656.024C195.665 654.98 194.584 653.575 193.808 651.924C193.033 650.272 192.585 648.42 192.5 646.517V522.484C192.561 520.573 193.009 518.711 193.803 517.065L206.406 525.983C205.594 527.62 205.14 529.486 205.088 531.402Z" fill="#263238"/>
<path d="M376.855 385.521C378.241 384.659 379.773 384.21 381.327 384.21C382.881 384.21 384.414 384.659 385.8 385.521L389.458 388.107C390.638 389.061 391.639 390.309 392.398 391.771C393.157 393.232 393.655 394.874 393.861 396.588C393.504 393.85 391.66 392.88 389.458 394.439L209.491 521.837C208.193 522.857 207.126 524.264 206.391 525.926L193.787 517.008C194.532 515.354 195.597 513.95 196.888 512.92L376.855 385.521Z" fill="#455A64"/>
<path d="M205.088 531.402V655.435C205.088 658.933 207.088 660.359 209.569 658.61L389.536 531.212C390.836 530.168 391.917 528.763 392.693 527.111C393.468 525.46 393.916 523.608 394 521.704V397.615C394 394.116 392.001 392.709 389.536 394.458L209.569 521.857C208.259 522.899 207.17 524.308 206.391 525.967C205.612 527.627 205.166 529.489 205.088 531.402Z" fill="#37474F"/>
<path d="M366.049 416.972C367.6 415.907 368.731 416.762 368.731 418.873V536.118C368.682 537.26 368.414 538.373 367.948 539.364C367.482 540.355 366.831 541.197 366.049 541.822L232.884 636.135C231.334 637.18 230.202 636.325 230.202 634.233V516.97C230.251 515.827 230.52 514.715 230.986 513.723C231.452 512.732 232.102 511.89 232.884 511.265L366.049 416.972Z" fill="#F5F5F5"/>
<path d="M211.832 588.598C211.863 587.931 212.019 587.283 212.288 586.702C212.557 586.122 212.931 585.625 213.382 585.251C214.25 584.643 214.932 585.137 214.932 586.373C214.902 587.04 214.746 587.689 214.477 588.269C214.208 588.85 213.833 589.346 213.382 589.72C212.545 590.328 211.832 589.834 211.832 588.598Z" fill="#263238"/>
<path d="M375.134 472.894C375.236 470.232 375.851 467.637 376.929 465.323C378.007 463.01 379.517 461.042 381.335 459.583C384.761 457.15 387.536 459.127 387.536 463.995C387.419 466.637 386.796 469.208 385.719 471.5C384.642 473.793 383.14 475.742 381.335 477.191C377.909 479.796 375.134 477.819 375.134 472.894Z" fill="#263238"/>
<path d="M218.25 563.004C218.303 561.669 218.612 560.367 219.15 559.205C219.689 558.042 220.442 557.051 221.35 556.311C223.087 555.075 224.451 556.083 224.451 558.536C224.397 559.871 224.089 561.173 223.551 562.335C223.012 563.498 222.258 564.489 221.35 565.229C219.661 566.465 218.25 565.457 218.25 563.004Z" fill="#263238"/>
<path d="M221.521 571.599C222.668 570.762 223.614 571.599 223.614 573.272V602.612C223.582 603.534 223.377 604.434 223.014 605.243C222.651 606.051 222.14 606.745 221.521 607.27C220.358 608.088 219.413 607.27 219.413 605.578V576.257C219.436 575.331 219.64 574.425 220.006 573.615C220.373 572.804 220.892 572.113 221.521 571.599Z" fill="#263238"/>
<path d="M230.202 516.97V542.373C233.086 544.845 237.24 544.75 241.86 541.461C250.557 535.319 257.61 520.335 257.61 508.014C257.61 502.595 256.231 498.507 253.967 496.339L232.884 511.265C232.101 511.889 231.45 512.731 230.984 513.722C230.518 514.714 230.25 515.827 230.202 516.97Z" fill="#BA68C8"/>
<path opacity="0.7" d="M230.202 516.97V542.373C233.086 544.845 237.24 544.75 241.86 541.461C250.557 535.319 257.61 520.335 257.61 508.014C257.61 502.595 256.231 498.507 253.967 496.339L232.884 511.265C232.101 511.889 231.45 512.731 230.984 513.722C230.518 514.714 230.25 515.827 230.202 516.97Z" fill="white"/>
<path d="M368.731 494.228L346.02 460.401C345.872 460.084 345.673 459.807 345.435 459.585C345.197 459.364 344.926 459.204 344.637 459.113C344.348 459.023 344.047 459.005 343.752 459.059C343.457 459.114 343.174 459.24 342.92 459.431C342.42 459.795 342.054 460.381 341.897 461.067L312.055 541.461L283.918 521.552C282.999 520.927 281.925 520.736 280.9 521.016C279.874 521.297 278.968 522.029 278.353 523.073L230.202 608.297V634.214C230.202 636.325 231.396 637.18 232.884 636.115L366.049 541.803C366.831 541.178 367.482 540.336 367.948 539.345C368.414 538.353 368.682 537.241 368.731 536.098V494.266V494.228Z" fill="#BA68C8"/>
<path d="M239.008 537.011V519.175L251.595 510.257" stroke="white" stroke-width="1.5" stroke-linecap="round" stroke-linejoin="round"/>
<path d="M239.008 602.954V620.79L251.595 611.872" stroke="white" stroke-width="1.5" stroke-linecap="round" stroke-linejoin="round"/>
<path d="M347.648 442.661L360.236 433.743V451.578" stroke="white" stroke-width="1.5" stroke-linecap="round" stroke-linejoin="round"/>
<path d="M360.236 517.331V535.167L347.648 544.085" stroke="white" stroke-width="1.5" stroke-linecap="round" stroke-linejoin="round"/>
<path d="M425.749 226.502C425.749 250.993 411.797 280.751 394.466 293.053C387.272 298.149 380.668 299.404 375.398 297.369C371.305 292.787 368.871 285.105 368.871 274.913C368.871 250.46 382.823 220.683 400.17 208.362C407.348 203.285 413.968 202.03 419.254 204.065C423.331 208.685 425.749 216.329 425.749 226.502Z" fill="#BA68C8"/>
<path d="M431.423 230.552C431.423 255.024 417.471 284.763 400.139 297.008C391.613 303.036 383.893 303.701 378.25 299.879L377.785 299.556C376.917 298.907 376.107 298.148 375.367 297.293C371.274 292.711 368.84 285.029 368.84 274.837C368.84 250.384 382.792 220.607 400.139 208.286C407.317 203.209 413.937 201.954 419.223 203.988C420.104 204.312 420.956 204.745 421.765 205.281L421.905 205.377L422.788 206.004C428.168 210.263 431.423 218.687 431.423 230.552Z" fill="#BA68C8"/>
<path d="M417.006 201.992L416.06 201.326C410.464 197.714 402.852 198.436 394.481 204.369C377.165 216.595 363.213 246.353 363.213 270.825C363.169 274.899 363.629 278.957 364.577 282.861C365.579 287.087 367.529 290.882 370.204 293.814C370.805 294.444 371.448 295.01 372.127 295.506H372.235L372.375 295.62L372.902 295.981L377.8 299.461C376.933 298.812 376.122 298.053 375.382 297.198C371.289 292.616 368.856 284.934 368.856 274.742C368.856 250.289 382.808 220.512 400.155 208.191C407.332 203.114 413.952 201.859 419.238 203.893C420.119 204.217 420.971 204.65 421.781 205.186L417.006 201.992Z" fill="#455A64"/>
<path d="M370.173 293.814C370.774 294.444 371.417 295.01 372.096 295.506L361.011 287.653H360.887C355.322 283.603 351.865 275.046 351.865 262.934C351.865 238.481 365.817 208.704 383.149 196.383C387.348 193.177 392.158 191.374 397.101 191.154C399.96 191.106 402.778 191.985 405.271 193.702L416.122 201.307C410.526 197.695 402.914 198.417 394.543 204.35C377.165 216.595 363.213 246.353 363.213 270.825C363.169 274.899 363.629 278.957 364.577 282.861C365.548 287.095 367.49 290.897 370.173 293.814Z" fill="#263238"/>
<path d="M465.528 254.72C465.528 279.191 451.576 308.93 434.245 321.271C430.047 324.483 425.237 326.292 420.293 326.519C417.457 326.555 414.662 325.683 412.185 323.99L378.281 299.86L377.816 299.537C376.948 298.888 376.138 298.129 375.398 297.274C371.305 292.692 368.871 285.01 368.871 274.818C368.871 250.365 382.823 220.588 400.17 208.267C407.348 203.19 413.968 201.935 419.254 203.969C420.135 204.293 420.987 204.727 421.796 205.262L421.936 205.358L422.819 205.985L456.382 229.734C462.056 233.841 465.528 242.455 465.528 254.72Z" fill="#263238"/>
<path d="M447.158 384.323C440.461 387.784 431.036 387.347 425.005 383.087L403.751 368.047C400.223 365.222 397.286 361.418 395.18 356.941C393.074 352.465 391.857 347.443 391.629 342.282V271.928C391.639 270.077 391.821 268.233 392.171 266.433C392.28 265.805 392.419 265.197 392.574 264.531V264.36C392.714 263.79 392.869 263.238 393.039 262.668C393.21 262.097 393.504 261.204 393.768 260.481L394.341 258.998L394.993 257.553L395.132 257.21L440.647 289.535C438.456 293.968 437.228 299.015 437.082 304.196V374.55C437.128 382.973 441.469 386.947 447.158 384.323Z" fill="#263238"/>
<path d="M562.279 215.492V285.847C562.056 291.009 560.842 296.034 558.735 300.512C556.629 304.989 553.689 308.792 550.156 311.611L449.266 383.068L449.003 383.24C448.805 383.392 448.597 383.525 448.383 383.639L447.701 384.038L447.158 384.304C441.469 386.928 437.128 382.954 437.128 374.493V304.139C437.364 298.978 438.586 293.958 440.694 289.482C442.803 285.007 445.739 281.202 449.266 278.374C454.993 274.167 459.887 268.454 463.597 261.648C467.307 254.842 469.74 247.112 470.722 239.013C471.103 236.421 471.876 233.938 473 231.693C474.066 229.461 475.549 227.571 477.326 226.179L499.323 210.587C499.975 210.034 500.734 209.703 501.523 209.626C502.313 209.55 503.105 209.73 503.819 210.149L504.253 210.453C505.433 211.509 506.359 212.934 506.935 214.58C507.823 216.769 509.055 218.721 510.559 220.327C512.062 221.932 513.809 223.158 515.699 223.935C517.59 224.712 519.586 225.024 521.575 224.855C523.563 224.685 525.505 224.036 527.29 222.946L528.111 222.395L550.14 206.822C556.527 202.296 561.752 205.567 562.232 214.104C562.263 214.637 562.279 215.074 562.279 215.492Z" fill="#37474F"/>
<path d="M448.476 214.428L427.455 199.539C426.324 201.78 425.55 204.264 425.176 206.86C424.184 214.941 421.745 222.653 418.036 229.442C414.326 236.23 409.437 241.928 403.72 246.125C400.14 248.866 397.19 252.681 395.148 257.211L440.663 289.535C442.692 284.989 445.645 281.164 449.235 278.431C454.972 274.221 459.875 268.501 463.591 261.685C467.307 254.868 469.742 247.125 470.722 239.013C471.104 236.421 471.876 233.938 473.001 231.693L448.476 214.428Z" fill="#37474F"/>
<path d="M550.156 189.727L528.902 174.687C525.147 172.343 520.993 171.12 516.779 171.12C512.566 171.12 508.412 172.343 504.656 174.687L482.581 190.241C481.282 191.173 479.877 191.859 478.411 192.275L479.077 192.732L503.757 210.225L504.191 210.529C505.371 211.585 506.297 213.01 506.873 214.656C507.762 216.845 508.993 218.797 510.497 220.403C512 222.008 513.747 223.234 515.638 224.011C517.528 224.788 519.524 225.1 521.513 224.931C523.502 224.761 525.444 224.112 527.228 223.022L528.049 222.471L550.078 206.898C556.465 202.372 561.69 205.643 562.17 214.18C561.801 209.257 560.528 204.5 558.447 200.265C556.367 196.031 553.532 192.428 550.156 189.727Z" fill="#37474F"/>
<path d="M479.14 192.732L478.473 192.275L458.692 178.262L458.304 177.995C457.593 177.576 456.803 177.395 456.016 177.472C455.229 177.549 454.473 177.88 453.824 178.433L431.811 194.006C430.03 195.4 428.547 197.298 427.486 199.539L448.476 214.428L472.954 231.769C474.02 229.537 475.502 227.647 477.279 226.255L499.277 210.663C499.929 210.11 500.688 209.779 501.477 209.702C502.267 209.626 503.058 209.806 503.773 210.225L479.14 192.732Z" fill="#455A64"/>
<path d="M481.511 231.293L498.192 219.485C499.866 218.287 501.292 219.257 501.292 221.615V233.176C501.23 234.475 500.916 235.737 500.377 236.858C499.838 237.979 499.089 238.927 498.192 239.622L481.511 251.43C479.837 252.628 478.411 251.658 478.411 249.3V237.739C478.479 236.442 478.796 235.183 479.334 234.063C479.873 232.943 480.619 231.994 481.511 231.293Z" fill="#E0E0E0"/>
<path d="M418.649 251.696C416.293 253.35 416.556 256.241 419.223 258.142L426.586 263.352C427.972 264.298 429.519 264.829 431.103 264.901C432.687 264.974 434.263 264.586 435.702 263.771C438.074 262.116 437.81 259.226 435.128 257.325L427.765 252.096C426.377 251.157 424.829 250.632 423.246 250.563C421.662 250.494 420.088 250.882 418.649 251.696Z" fill="#263238"/>
<path d="M418.649 249.548C416.293 251.202 416.556 254.111 419.223 255.994L426.586 261.223C427.974 262.161 429.522 262.686 431.105 262.755C432.689 262.825 434.263 262.436 435.702 261.622C438.074 259.968 437.81 257.078 435.128 255.176L427.765 249.966C426.38 249.02 424.832 248.49 423.248 248.417C421.664 248.344 420.088 248.732 418.649 249.548Z" fill="#455A64"/>
<path d="M518.733 205.852L516.547 205.167L511.524 201.612C510.479 200.905 509.314 200.508 508.121 200.452C506.929 200.396 505.743 200.682 504.656 201.288H504.563L503.432 200.927V203.399C503.498 203.985 503.686 204.54 503.976 205.013C504.266 205.485 504.65 205.859 505.09 206.099L510.64 210.016C511.69 210.717 512.857 211.111 514.051 211.167C515.245 211.223 516.433 210.94 517.523 210.339C517.861 210.151 518.151 209.853 518.361 209.477C518.571 209.102 518.694 208.664 518.717 208.21V205.852H518.733Z" fill="#263238"/>
<path d="M504.656 198.912C502.874 200.186 503.106 202.353 505.091 203.779L510.64 207.715C511.687 208.426 512.855 208.826 514.051 208.882C515.246 208.938 516.436 208.649 517.523 208.039C519.291 206.784 519.074 204.597 517.074 203.171L511.524 199.235C510.479 198.528 509.314 198.131 508.121 198.075C506.929 198.019 505.743 198.305 504.656 198.912Z" fill="#455A64"/>
<path d="M538.188 185.468C535.072 183.556 531.635 182.56 528.15 182.56C524.666 182.56 521.229 183.556 518.113 185.468H513.849V192.675C513.849 195.28 515.245 197.866 518.035 199.843C521.17 201.793 524.635 202.809 528.15 202.809C531.665 202.809 535.131 201.793 538.266 199.843C541.056 197.942 542.451 195.28 542.451 192.675V185.468H538.188Z" fill="#263238"/>
<path d="M518.035 178.319C512.454 182.274 512.454 188.682 518.035 192.637C521.17 194.586 524.635 195.602 528.15 195.602C531.665 195.602 535.131 194.586 538.266 192.637C543.846 188.682 543.846 182.274 538.266 178.319C535.131 176.369 531.665 175.353 528.15 175.353C524.635 175.353 521.17 176.369 518.035 178.319Z" fill="#455A64"/>
<path d="M496.766 194.291C495.91 193.784 494.972 193.521 494.022 193.521C493.072 193.521 492.134 193.784 491.278 194.291H489.991V196.345C490.021 196.782 490.146 197.201 490.354 197.559C490.561 197.917 490.843 198.2 491.169 198.379C492.052 198.923 493.026 199.206 494.014 199.206C495.002 199.206 495.976 198.923 496.859 198.379C497.184 198.204 497.466 197.924 497.673 197.569C497.88 197.215 498.006 196.798 498.037 196.364V194.291H496.766Z" fill="#263238"/>
<path d="M509.416 188.301V186.229H508.145C507.289 185.722 506.351 185.459 505.401 185.459C504.45 185.459 503.512 185.722 502.657 186.229H501.37V188.301C501.399 188.737 501.525 189.154 501.732 189.509C501.939 189.864 502.222 190.143 502.548 190.317C503.431 190.86 504.405 191.144 505.393 191.144C506.381 191.144 507.355 190.86 508.238 190.317C508.564 190.143 508.846 189.864 509.054 189.509C509.261 189.154 509.386 188.737 509.416 188.301Z" fill="#263238"/>
<path d="M491.169 192.275C490.826 192.419 490.529 192.69 490.318 193.052C490.107 193.413 489.994 193.847 489.994 194.291C489.994 194.735 490.107 195.169 490.318 195.53C490.529 195.892 490.826 196.163 491.169 196.307C492.052 196.85 493.026 197.133 494.014 197.133C495.002 197.133 495.976 196.85 496.859 196.307C497.202 196.163 497.499 195.892 497.71 195.53C497.921 195.169 498.034 194.735 498.034 194.291C498.034 193.847 497.921 193.413 497.71 193.052C497.499 192.69 497.202 192.419 496.859 192.275C495.979 191.718 495.004 191.428 494.014 191.428C493.024 191.428 492.049 191.718 491.169 192.275Z" fill="#455A64"/>
<path d="M502.548 184.213C502.205 184.357 501.907 184.628 501.697 184.99C501.486 185.351 501.372 185.784 501.372 186.229C501.372 186.673 501.486 187.106 501.697 187.468C501.907 187.829 502.205 188.101 502.548 188.244C503.431 188.788 504.405 189.071 505.393 189.071C506.38 189.071 507.355 188.788 508.237 188.244C508.58 188.101 508.878 187.829 509.089 187.468C509.3 187.106 509.413 186.673 509.413 186.229C509.413 185.784 509.3 185.351 509.089 184.99C508.878 184.628 508.58 184.357 508.237 184.213C507.355 183.67 506.38 183.387 505.393 183.387C504.405 183.387 503.431 183.67 502.548 184.213Z" fill="#455A64"/>
<path d="M547.009 268.429C548.079 266.042 548.669 263.376 548.73 260.652C548.789 259.62 548.663 258.584 548.36 257.618C548.057 256.652 547.586 255.78 546.978 255.062L551.629 245.25C553.721 247.152 554.869 250.669 554.869 255.328C554.722 260.959 553.444 266.459 551.148 271.338L547.009 268.429Z" fill="#263238"/>
<path d="M534.979 287.064C534.037 287.073 533.103 286.846 532.235 286.398L536.886 276.606C537.356 276.795 537.848 276.891 538.343 276.891C539.528 276.846 540.683 276.42 541.692 275.655C543.585 274.227 545.178 272.273 546.342 269.95L550.435 272.86C548.135 277.736 544.893 281.843 540.994 284.82C539.183 286.199 537.109 286.973 534.979 287.064Z" fill="#263238"/>
<path d="M531.026 285.542C528.933 283.641 527.786 280.123 527.786 275.483C527.935 269.844 529.219 264.338 531.522 259.454L535.63 262.363C534.548 264.753 533.953 267.427 533.894 270.159C533.835 271.192 533.961 272.227 534.264 273.193C534.566 274.159 535.038 275.032 535.646 275.75L531.026 285.542Z" fill="#263238"/>
<path d="M547.396 261.109C547.28 263.692 546.67 266.205 545.614 268.445C544.558 270.685 543.087 272.588 541.32 274C540.739 274.634 540.01 275.027 539.237 275.124C538.464 275.221 537.685 275.018 537.012 274.543C536.338 274.067 535.803 273.344 535.483 272.476C535.163 271.607 535.073 270.637 535.227 269.703C535.351 267.117 535.966 264.603 537.024 262.361C538.082 260.119 539.553 258.212 541.32 256.792C541.902 256.164 542.631 255.776 543.403 255.683C544.174 255.59 544.951 255.797 545.622 256.273C546.293 256.75 546.825 257.473 547.144 258.341C547.462 259.208 547.55 260.176 547.396 261.109Z" fill="#263238"/>
<path d="M532.189 258.028C534.48 253.144 537.724 249.035 541.63 246.068C543.437 244.688 545.503 243.903 547.629 243.786C548.567 243.77 549.496 243.996 550.357 244.452L545.707 254.263C545.245 254.058 544.756 253.955 544.265 253.959C543.078 254.007 541.923 254.44 540.916 255.214C539.01 256.621 537.413 258.58 536.266 260.918L532.189 258.028Z" fill="#263238"/>
<path d="M528.298 301.42L531.569 299.119C532.235 298.643 532.778 299.024 532.778 299.974V304.595C532.755 305.112 532.634 305.615 532.424 306.064C532.214 306.514 531.921 306.896 531.569 307.181L528.298 309.482C527.631 309.957 527.088 309.577 527.088 308.626V304.005C527.111 303.488 527.232 302.985 527.442 302.536C527.652 302.087 527.945 301.704 528.298 301.42Z" fill="#263238"/>
<path d="M551.055 285.314L554.326 282.994C554.446 282.884 554.59 282.819 554.74 282.808C554.89 282.798 555.039 282.842 555.169 282.936C555.298 283.03 555.402 283.168 555.468 283.334C555.533 283.501 555.556 283.687 555.535 283.869V288.452C555.513 288.966 555.392 289.467 555.181 289.913C554.971 290.359 554.678 290.738 554.326 291.019L551.055 293.338C550.938 293.458 550.794 293.53 550.643 293.546C550.491 293.562 550.339 293.52 550.207 293.427C550.076 293.334 549.97 293.193 549.906 293.025C549.841 292.856 549.82 292.667 549.846 292.483V287.881C549.868 287.367 549.99 286.866 550.2 286.42C550.41 285.974 550.703 285.595 551.055 285.314Z" fill="#263238"/>
<path d="M528.298 236.998L531.569 234.678C531.686 234.559 531.829 234.486 531.981 234.471C532.133 234.455 532.284 234.496 532.416 234.589C532.548 234.683 532.653 234.823 532.718 234.992C532.782 235.161 532.803 235.35 532.778 235.534V240.154C532.755 240.671 532.634 241.175 532.424 241.624C532.214 242.073 531.921 242.455 531.569 242.74L528.298 245.041C527.631 245.536 527.088 245.136 527.088 244.185V239.565C527.111 239.05 527.232 238.55 527.442 238.104C527.652 237.658 527.945 237.279 528.298 236.998Z" fill="#263238"/>
<path d="M551.055 220.873L554.326 218.573C554.993 218.097 555.535 218.478 555.535 219.428V224.049C555.513 224.566 555.392 225.069 555.182 225.518C554.972 225.968 554.679 226.35 554.326 226.635L551.055 228.936C550.389 229.411 549.846 229.031 549.846 228.08V223.459C549.868 222.942 549.99 222.439 550.2 221.99C550.41 221.541 550.703 221.158 551.055 220.873Z" fill="#263238"/>
<path d="M516.779 251.81V314.007C516.711 315.558 516.346 317.067 515.713 318.411C515.08 319.756 514.197 320.899 513.136 321.746L452.15 364.928C450.135 366.355 448.507 365.195 448.507 362.361V300.146C448.575 298.598 448.94 297.091 449.573 295.75C450.207 294.408 451.089 293.269 452.15 292.426L513.136 249.224C515.136 247.817 516.779 248.958 516.779 251.81Z" fill="#F0F0F0"/>
<path d="M455.529 314.007C458.33 311.768 460.66 308.75 462.33 305.198C464 301.646 464.963 297.661 465.141 293.567C465.141 289.421 463.839 286.645 461.761 285.599L452.15 292.426C451.089 293.269 450.207 294.408 449.573 295.75C448.94 297.091 448.575 298.598 448.507 300.146V314.635C450.259 316.061 452.754 315.966 455.529 314.007Z" fill="#BA68C8"/>
<path opacity="0.7" d="M455.529 314.007C458.33 311.768 460.66 308.75 462.33 305.198C464 301.646 464.963 297.661 465.141 293.567C465.141 289.421 463.839 286.645 461.761 285.599L452.15 292.426C451.089 293.269 450.207 294.408 449.573 295.75C448.94 297.091 448.575 298.598 448.507 300.146V314.635C450.259 316.061 452.754 315.966 455.529 314.007Z" fill="white"/>
<path d="M507.028 277.651C506.885 277.324 506.666 277.056 506.4 276.879C506.133 276.703 505.83 276.626 505.528 276.658C505.226 276.691 504.939 276.831 504.701 277.061C504.464 277.292 504.287 277.603 504.191 277.956L488.332 319.16L474.38 308.854C473.75 308.39 472.996 308.25 472.282 308.463C471.568 308.677 470.952 309.227 470.567 309.995L448.476 355.421V362.362C448.476 365.195 450.104 366.355 452.119 364.929L513.105 321.746C514.16 320.895 515.038 319.754 515.67 318.414C516.303 317.074 516.672 315.572 516.748 314.026V294.346L507.028 277.651Z" fill="#BA68C8"/>
<path d="M459.886 294.993L454.196 299.024V307.086" stroke="white" stroke-linecap="round" stroke-linejoin="round"/>
<path d="M454.196 347.359V355.421L459.886 351.39" stroke="white" stroke-linecap="round" stroke-linejoin="round"/>
<path d="M505.401 262.763L511.09 258.732V266.794" stroke="white" stroke-linecap="round" stroke-linejoin="round"/>
<path d="M511.09 307.086V315.129L505.401 319.16" stroke="white" stroke-linecap="round" stroke-linejoin="round"/>
<path d="M548.063 269.209C549.136 266.816 549.726 264.143 549.784 261.413C549.843 260.381 549.717 259.345 549.414 258.379C549.112 257.413 548.64 256.54 548.032 255.822L552.683 246.03C554.776 247.931 555.923 251.449 555.923 256.089C555.77 261.725 554.493 267.229 552.202 272.118L548.063 269.209Z" fill="#455A64"/>
<path d="M536.033 287.824C535.097 287.838 534.169 287.618 533.305 287.178L537.956 277.366C538.42 277.562 538.906 277.665 539.397 277.67C540.59 277.631 541.752 277.197 542.761 276.415C544.654 274.987 546.248 273.033 547.412 270.711L551.52 273.62C549.229 278.504 545.985 282.614 542.079 285.58C540.256 286.956 538.173 287.729 536.033 287.824Z" fill="#455A64"/>
<path d="M532.08 286.322C529.987 284.421 528.856 280.884 528.856 276.244C529.003 270.613 530.281 265.114 532.576 260.234L536.684 263.124C535.603 265.513 535.007 268.188 534.948 270.92C534.889 271.952 535.015 272.988 535.318 273.954C535.621 274.92 536.092 275.793 536.7 276.51L532.08 286.322Z" fill="#455A64"/>
<path d="M548.451 261.831C548.335 264.417 547.724 266.933 546.668 269.176C545.613 271.419 544.142 273.326 542.374 274.742C541.635 275.535 540.671 275.937 539.691 275.858C538.712 275.78 537.797 275.228 537.149 274.324C536.781 273.811 536.512 273.202 536.364 272.543C536.216 271.884 536.193 271.192 536.297 270.521C536.371 267.928 536.985 265.401 538.08 263.181C539.093 260.904 540.573 258.99 542.374 257.629C542.956 257.004 543.682 256.617 544.452 256.524C545.222 256.431 545.996 256.636 546.666 257.11C547.336 257.584 547.869 258.303 548.189 259.167C548.509 260.03 548.6 260.995 548.451 261.926V261.831Z" fill="#455A64"/>
<path d="M533.289 258.732C535.581 253.848 538.825 249.738 542.73 246.771C544.54 245.403 546.605 244.624 548.73 244.509C549.661 244.493 550.584 244.713 551.443 245.155L546.792 254.967C546.327 254.777 545.84 254.68 545.35 254.682C544.165 254.726 543.01 255.152 542.002 255.917C540.108 257.346 538.515 259.3 537.351 261.622L533.289 258.732Z" fill="#455A64"/>
<path d="M529.367 302.199L532.623 299.879C532.74 299.76 532.884 299.688 533.035 299.672C533.187 299.656 533.338 299.697 533.47 299.791C533.602 299.884 533.707 300.024 533.772 300.193C533.837 300.362 533.857 300.551 533.832 300.735V305.356C533.809 305.873 533.688 306.376 533.478 306.825C533.268 307.274 532.975 307.657 532.623 307.942L529.367 310.242C529.25 310.362 529.106 310.434 528.955 310.45C528.803 310.466 528.651 310.424 528.52 310.331C528.388 310.238 528.283 310.097 528.218 309.928C528.153 309.76 528.132 309.571 528.158 309.387V304.766C528.18 304.252 528.302 303.751 528.512 303.305C528.722 302.859 529.015 302.48 529.367 302.199Z" fill="#455A64"/>
<path d="M552.125 286.075L555.38 283.774C555.497 283.655 555.641 283.582 555.793 283.566C555.944 283.551 556.096 283.592 556.228 283.685C556.36 283.778 556.465 283.919 556.53 284.088C556.594 284.257 556.615 284.446 556.589 284.63V289.25C556.567 289.765 556.446 290.265 556.236 290.711C556.026 291.158 555.732 291.536 555.38 291.817L552.125 294.137C552.006 294.253 551.862 294.322 551.711 294.336C551.56 294.35 551.408 294.309 551.277 294.217C551.145 294.125 551.039 293.986 550.972 293.82C550.905 293.653 550.88 293.466 550.9 293.281V288.661C550.922 288.141 551.044 287.636 551.257 287.186C551.47 286.736 551.768 286.355 552.125 286.075Z" fill="#455A64"/>
<path d="M529.367 237.758L532.623 235.458C532.74 235.338 532.884 235.266 533.035 235.25C533.187 235.234 533.338 235.276 533.47 235.369C533.602 235.462 533.707 235.603 533.772 235.772C533.837 235.94 533.857 236.129 533.832 236.313V240.915C533.809 241.429 533.688 241.93 533.478 242.376C533.268 242.822 532.975 243.201 532.623 243.482L529.367 245.802C529.25 245.921 529.106 245.993 528.955 246.009C528.803 246.025 528.651 245.984 528.52 245.89C528.388 245.797 528.283 245.657 528.218 245.488C528.153 245.319 528.132 245.13 528.158 244.946V240.344C528.181 239.827 528.302 239.324 528.512 238.875C528.722 238.426 529.015 238.043 529.367 237.758Z" fill="#455A64"/>
<path d="M552.125 221.653L555.38 219.333C556.047 218.858 556.589 219.238 556.589 220.189V224.81C556.567 225.327 556.446 225.83 556.236 226.279C556.026 226.728 555.733 227.111 555.38 227.396L552.125 229.696C551.443 230.172 550.9 229.791 550.9 228.841V224.22C550.923 223.704 551.046 223.201 551.259 222.755C551.472 222.308 551.769 221.931 552.125 221.653Z" fill="#455A64"/>
<path d="M529.088 361.297H533.739C534.859 361.292 535.969 361.558 537.005 362.08C538.042 362.603 538.983 363.371 539.777 364.341C540.571 365.311 541.2 366.463 541.63 367.732C542.06 369.001 542.281 370.362 542.281 371.736V372.116L541.273 410.412L529.088 361.297Z" fill="#F28F8F"/>
<path d="M492.13 378.771C495.934 378.771 499.581 376.918 502.27 373.62C504.959 370.321 506.47 365.847 506.47 361.183V308.816C502.667 308.816 499.02 310.669 496.33 313.968C493.641 317.266 492.13 321.74 492.13 326.405V378.771Z" fill="#263238"/>
<path d="M516.184 573.414L512.073 588.989L520.804 592.457L524.915 576.881L516.184 573.414Z" fill="#FFA8A7"/>
<path d="M522.608 585.689C522.546 586.967 522.811 588.237 523.368 589.32C524.767 592.147 526.403 594.785 528.251 597.192C530.871 600.634 534.778 604.703 537.553 607.708C539.103 609.381 539.103 611.891 536.948 612.785C532.786 614.026 528.394 613.271 524.67 610.674C521.895 608.772 517.927 600.368 515.601 599.094C512.95 597.611 511.447 596.869 510.547 595.291C509.864 594.435 509.439 593.319 509.34 592.127C509.241 590.936 509.476 589.738 510.005 588.731C511.261 585.879 513.105 581.448 513.927 581.943L513.679 582.855C514.299 585.194 519.492 587.913 522.159 587.267L522.608 585.689Z" fill="#37474F"/>
<path d="M513.71 582.932C515.772 583.711 516.965 585.803 519.632 585.137L522.608 585.689C522.546 586.967 522.811 588.237 523.368 589.321C524.767 592.147 526.403 594.785 528.251 597.193C529.522 598.866 531.103 600.691 532.716 602.46C534.002 604.932 529.708 605.654 527.336 604.818C524.729 603.687 522.481 601.57 520.918 598.771C519.198 595.995 514.516 589.549 513.818 587.362C513.318 585.958 513.28 584.37 513.71 582.932Z" fill="#FFA8A7"/>
<path d="M487.309 424.501C487.309 410.107 489.557 399.516 492.13 377.44C492.999 369.948 495.37 366.183 499.68 364.13C499.68 364.13 511.508 370.1 511.508 380.825C511.508 391.549 501.928 397.063 501.928 397.063L500.006 415.583L492.053 433.096C488.084 431.556 487.232 428.913 487.309 424.501Z" fill="#FFA8A7"/>
<path d="M511.788 598.828H502.874V614.743H511.788V598.828Z" fill="#FFA8A7"/>
<path d="M496.161 436.576C492.627 455.153 496.068 480.176 497.277 495.806C498.455 511.018 499.913 528.778 499.913 528.778C499.913 528.778 496.115 544.864 496.301 557.3C496.533 570.401 502.734 602.193 502.734 602.193C504.097 603.272 505.685 603.846 507.307 603.846C508.93 603.846 510.517 603.272 511.881 602.193C511.881 602.193 513.431 575.573 514.981 560.494C516.531 544.731 517.012 533.227 518.345 524.005C520.004 512.596 522.205 473.73 522.205 473.73L527.631 512.14C524.776 517.92 522.551 524.133 521.011 530.622C519.043 539.958 514.811 577.037 514.811 577.037C517.473 579.945 520.889 581.602 524.453 581.715C524.453 581.715 543.552 526.135 546.141 520.43C548.931 514.517 545.521 453.518 542.854 435.549L496.161 436.576Z" fill="#BA68C8"/>
<path opacity="0.3" d="M496.161 436.576C492.627 455.153 496.068 480.176 497.277 495.806C498.455 511.018 499.913 528.778 499.913 528.778C499.913 528.778 496.115 544.864 496.301 557.3C496.533 570.401 502.734 602.193 502.734 602.193C504.097 603.272 505.685 603.846 507.307 603.846C508.93 603.846 510.517 603.272 511.881 602.193C511.881 602.193 513.431 575.573 514.981 560.494C516.531 544.731 517.012 533.227 518.345 524.005C520.004 512.596 522.205 473.73 522.205 473.73L527.631 512.14C524.776 517.92 522.551 524.133 521.011 530.622C519.043 539.958 514.811 577.037 514.811 577.037C517.473 579.945 520.889 581.602 524.453 581.715C524.453 581.715 543.552 526.135 546.141 520.43C548.931 514.517 545.521 453.518 542.854 435.549L496.161 436.576Z" fill="black"/>
<path d="M512.485 361.563C512.485 361.563 501.184 363.293 499.68 364.111C511.509 374.322 501.928 397.044 501.928 397.044L507.664 416.363C502.843 422.79 498.781 426.65 496.177 436.519C499.479 441.215 520.252 453.328 542.792 435.53C542.144 428.281 541.192 421.077 539.94 413.948C543.18 394.934 543.97 386.548 543.04 382.08C540.389 369.511 534.328 361.487 527.367 361.011L512.485 361.563Z" fill="#BA68C8"/>
<path opacity="0.5" d="M512.485 361.563C512.485 361.563 501.184 363.293 499.68 364.111C511.509 374.322 501.928 397.044 501.928 397.044L507.664 416.363C502.843 422.79 498.781 426.65 496.177 436.519C499.479 441.215 520.252 453.328 542.792 435.53C542.144 428.281 541.192 421.077 539.94 413.948C543.18 394.934 543.97 386.548 543.04 382.08C540.389 369.511 534.328 361.487 527.367 361.011L512.485 361.563Z" fill="white"/>
<path d="M511.787 609.343V607.784C512.888 612.958 515.086 617.682 518.159 621.474C520.98 624.612 524.809 628.243 525.786 631.761C526.763 635.279 521.337 636.838 517.616 636.42C514.088 635.886 510.837 633.798 508.47 630.544C506.16 627.293 506.191 625.068 505.121 623.281C504.052 621.493 501.556 619.478 500.967 617.424C500.794 615.5 500.969 613.552 501.478 611.72C501.897 609.818 502.347 607.651 502.874 607.917V609.115C504.14 610.358 505.716 611.029 507.338 611.016C508.641 610.883 511.803 610.56 511.787 609.343Z" fill="#37474F"/>
<path d="M502.874 608.982C503.525 609.856 505.308 609.153 507.338 609.248C508.641 609.248 510.439 609.875 510.439 608.658L511.71 607.784C512.816 612.955 515.014 617.677 518.081 621.474C518.764 622.216 519.492 622.995 520.221 623.813C521.771 625.848 521.29 627.616 517.787 627.996C514.283 628.377 511.183 625.772 508.486 621.759C506.263 617.748 504.382 613.466 502.874 608.982Z" fill="#FFA8A7"/>
<path d="M517.043 303.663H525.352C529.928 303.663 534.317 305.893 537.553 309.862C540.788 313.831 542.606 319.214 542.606 324.827V327.355C542.602 333.96 540.461 340.293 536.654 344.963C532.846 349.634 527.683 352.26 522.298 352.265H520.19C514.775 352.265 509.582 349.626 505.753 344.93C501.924 340.234 499.773 333.864 499.773 327.222V324.769C499.786 319.163 501.611 313.792 504.849 309.835C508.086 305.878 512.472 303.658 517.043 303.663Z" fill="#263238"/>
<path d="M535.568 314.235C537.832 315.871 540.638 322.849 540.359 337.471C540.126 349.869 536.84 352.93 535.196 353.805C533.553 354.68 530.391 354.147 527.306 353.52V360.973C527.306 360.973 531.569 367.039 531.29 370.481C531.011 373.922 525.089 374.702 521.151 371.374C518.267 368.63 515.782 365.306 513.803 361.544V344.431C513.803 344.431 511.989 346.598 508.92 343.309C506.377 340.571 505.525 335.988 507.494 333.516C508.35 332.557 509.479 332.047 510.638 332.097C511.798 332.147 512.895 332.752 513.694 333.782C514.017 334.212 514.283 334.699 514.485 335.228C518.528 335.025 522.466 333.587 525.941 331.044C528.516 329.378 530.732 326.985 532.406 324.062C534.08 321.14 535.163 317.772 535.568 314.235Z" fill="#FFA8A7"/>
<path d="M529.088 334.353C529.101 334.56 529.08 334.769 529.027 334.966C528.974 335.163 528.889 335.346 528.778 335.503C528.667 335.661 528.532 335.789 528.38 335.882C528.229 335.975 528.064 336.031 527.895 336.045C527.635 336.07 527.375 336.001 527.148 335.845C526.921 335.689 526.737 335.455 526.618 335.17C526.499 334.886 526.452 334.565 526.482 334.248C526.512 333.931 526.617 333.632 526.786 333.389C526.954 333.145 527.177 332.968 527.427 332.88C527.678 332.792 527.943 332.797 528.191 332.894C528.439 332.991 528.658 333.176 528.821 333.425C528.983 333.675 529.082 333.978 529.104 334.296L529.088 334.353Z" fill="#263238"/>
<path d="M529.414 344.868L532.359 346.009C532.247 346.492 531.984 346.901 531.627 347.147C531.269 347.393 530.847 347.456 530.452 347.321C530.058 347.18 529.725 346.852 529.527 346.41C529.33 345.968 529.283 345.447 529.398 344.963L529.414 344.868Z" fill="#F28F8F"/>
<path d="M539.49 329.561L536.917 327.374C537.144 326.958 537.497 326.668 537.897 326.568C538.298 326.468 538.714 326.567 539.056 326.842C539.398 327.141 539.634 327.59 539.715 328.096C539.795 328.601 539.715 329.126 539.49 329.561Z" fill="#263238"/>
<path d="M538.901 333.231C538.904 333.537 538.833 333.837 538.698 334.094C538.563 334.351 538.369 334.553 538.141 334.676C537.912 334.799 537.659 334.837 537.414 334.785C537.168 334.733 536.94 334.593 536.759 334.383C536.577 334.174 536.45 333.903 536.393 333.605C536.336 333.307 536.351 332.996 536.437 332.709C536.524 332.422 536.677 332.172 536.878 331.991C537.079 331.81 537.319 331.706 537.568 331.691C537.911 331.681 538.243 331.837 538.493 332.125C538.742 332.413 538.889 332.811 538.901 333.231Z" fill="#263238"/>
<path d="M532.902 332.337L533.103 341.712L537.134 340.19L532.902 332.337Z" fill="#F28F8F"/>
<path d="M527.306 353.52C524.05 353.006 517.368 350.648 516.314 347.397C516.734 349.043 517.556 350.49 518.671 351.542C520.67 353.634 527.306 356.011 527.306 356.011V353.52Z" fill="#F28F8F"/>
<path d="M504.284 404.935L513.183 419.729L507.664 416.363L504.284 404.935Z" fill="#BA68C8"/>
<path d="M522.19 473.635L523.74 463.177C528.28 461.617 532.708 459.601 536.979 457.15C536.979 457.15 531.057 463.596 526.592 465.402L524.391 477.381L525.492 496.586L522.19 473.635Z" fill="#BA68C8"/>
<path opacity="0.4" d="M522.19 473.635L523.74 463.177C528.28 461.617 532.708 459.601 536.979 457.15C536.979 457.15 531.057 463.596 526.592 465.402L524.391 477.381L525.492 496.586L522.19 473.635Z" fill="black"/>
<path d="M500.006 415.565C500.006 415.565 532.933 409.708 535.026 408.776C537.118 407.845 540.56 403.319 543.784 402.958C548.435 402.463 550.466 401.056 551.35 401.665C552.233 402.273 551.722 405.582 547.505 407.75C547.05 407.876 546.648 408.204 546.378 408.671C546.109 409.138 545.989 409.711 546.043 410.28C546.097 410.849 546.32 411.373 546.67 411.752C547.02 412.131 547.472 412.337 547.939 412.332C548.471 412.329 548.997 412.2 549.489 411.952L551.133 411.02L553.582 409.613C554.093 411.463 554.093 413.468 553.582 415.317C553.019 416.871 552.199 418.265 551.174 419.41C550.149 420.556 548.942 421.428 547.629 421.973C544.839 422.98 536.514 419.729 534.157 420.432C531.801 421.136 529.507 422.22 519.74 425.186C511.198 427.791 500.719 432.259 492.006 433.02L500.006 415.565Z" fill="#FFA8A7"/>
<path d="M622.102 346.332L610.6 354.489C610.431 354.626 610.29 354.809 610.188 355.023C610.085 355.237 610.025 355.478 610.011 355.725V389.229C610.011 389.686 610.274 389.876 610.6 389.648L622.102 381.49C622.271 381.354 622.413 381.171 622.515 380.957C622.617 380.742 622.677 380.502 622.692 380.254V346.75C622.661 346.294 622.397 346.104 622.102 346.332Z" fill="#BA68C8"/>
<path d="M610.569 354.489L622.072 346.332C622.121 346.285 622.18 346.254 622.242 346.243C622.304 346.232 622.368 346.242 622.426 346.271C622.484 346.3 622.535 346.347 622.574 346.408C622.612 346.469 622.637 346.541 622.645 346.617C622.622 346.395 622.561 346.181 622.468 345.988C622.375 345.795 622.25 345.628 622.103 345.496L621.622 345.153C621.439 345.041 621.238 344.983 621.033 344.983C620.829 344.983 620.627 345.041 620.444 345.153L608.941 353.311C608.765 353.438 608.62 353.622 608.523 353.843L610.181 355.022C610.272 354.807 610.405 354.624 610.569 354.489Z" fill="#BA68C8"/>
<path opacity="0.5" d="M610.569 354.489L622.072 346.332C622.121 346.285 622.18 346.254 622.242 346.243C622.304 346.232 622.368 346.242 622.426 346.271C622.484 346.3 622.535 346.347 622.574 346.408C622.612 346.469 622.637 346.541 622.645 346.617C622.622 346.395 622.561 346.181 622.468 345.988C622.375 345.795 622.25 345.628 622.103 345.496L621.622 345.153C621.439 345.041 621.238 344.983 621.033 344.983C620.829 344.983 620.627 345.041 620.444 345.153L608.941 353.311C608.765 353.438 608.62 353.622 608.523 353.843L610.181 355.022C610.272 354.807 610.405 354.624 610.569 354.489Z" fill="white"/>
<path d="M608.321 388.031C608.329 388.283 608.387 388.529 608.489 388.748C608.592 388.966 608.736 389.151 608.91 389.286L609.391 389.628C609.558 389.723 609.741 389.771 609.925 389.771C610.11 389.771 610.292 389.723 610.46 389.628C610.181 389.762 609.98 389.628 609.98 389.153V355.725C609.982 355.476 610.041 355.232 610.15 355.022L608.491 353.843C608.384 354.061 608.325 354.31 608.321 354.565V388.031Z" fill="#BA68C8"/>
<path opacity="0.2" d="M608.321 388.031C608.329 388.283 608.387 388.529 608.489 388.748C608.592 388.966 608.736 389.151 608.91 389.286L609.391 389.628C609.558 389.723 609.741 389.771 609.925 389.771C610.11 389.771 610.292 389.723 610.46 389.628C610.181 389.762 609.98 389.628 609.98 389.153V355.725C609.982 355.476 610.041 355.232 610.15 355.022L608.491 353.843C608.384 354.061 608.325 354.31 608.321 354.565V388.031Z" fill="black"/>
<path d="M612.553 355.174C612.269 355.413 612.034 355.73 611.867 356.099C611.701 356.469 611.606 356.881 611.592 357.304V359.852C611.592 360.65 612.026 360.992 612.553 360.612C612.837 360.373 613.072 360.056 613.239 359.687C613.406 359.317 613.5 358.905 613.514 358.482V355.935C613.514 355.136 613.08 354.794 612.553 355.174Z" fill="#BA68C8"/>
<path opacity="0.2" d="M612.553 355.174C612.269 355.413 612.034 355.73 611.867 356.099C611.701 356.469 611.606 356.881 611.592 357.304V359.852C611.592 360.65 612.026 360.992 612.553 360.612C612.837 360.373 613.072 360.056 613.239 359.687C613.406 359.317 613.5 358.905 613.514 358.482V355.935C613.514 355.136 613.08 354.794 612.553 355.174Z" fill="black"/>
<path d="M612.553 356.125C612.43 356.218 612.328 356.346 612.255 356.498C612.182 356.651 612.141 356.823 612.135 356.999C612.135 357.323 612.321 357.456 612.553 357.304C612.676 357.211 612.778 357.082 612.851 356.93C612.924 356.778 612.965 356.606 612.972 356.429C612.972 356.106 612.801 355.973 612.553 356.125Z" fill="#BA68C8"/>
<path opacity="0.5" d="M612.553 356.125C612.43 356.218 612.328 356.346 612.255 356.498C612.182 356.651 612.141 356.823 612.135 356.999C612.135 357.323 612.321 357.456 612.553 357.304C612.676 357.211 612.778 357.082 612.851 356.93C612.924 356.778 612.965 356.606 612.972 356.429C612.972 356.106 612.801 355.973 612.553 356.125Z" fill="black"/>
<path d="M612.553 358.121C612.43 358.214 612.328 358.342 612.255 358.495C612.182 358.647 612.141 358.819 612.135 358.996C612.135 359.319 612.321 359.452 612.553 359.3C612.676 359.203 612.778 359.071 612.851 358.916C612.924 358.76 612.965 358.586 612.972 358.407C612.972 358.102 612.801 357.969 612.553 358.121Z" fill="#BA68C8"/>
<path opacity="0.5" d="M612.553 358.121C612.43 358.214 612.328 358.342 612.255 358.495C612.182 358.647 612.141 358.819 612.135 358.996C612.135 359.319 612.321 359.452 612.553 359.3C612.676 359.203 612.778 359.071 612.851 358.916C612.924 358.76 612.965 358.586 612.972 358.407C612.972 358.102 612.801 357.969 612.553 358.121Z" fill="black"/>
<path d="M547.505 407.749L607.437 373.523L608.755 378.106L548.823 412.332C545.443 414.138 544.342 409.575 547.505 407.749Z" fill="#455A64"/>
<path d="M609.917 370.899L610.801 371.546C611.215 371.798 611.672 371.93 612.134 371.93C612.597 371.93 613.053 371.798 613.467 371.546L617.095 368.979C617.839 368.446 618.444 368.75 618.444 369.644C618.397 370.171 618.251 370.678 618.017 371.124C617.783 371.569 617.467 371.942 617.095 372.211L613.483 374.759C613.068 375.021 612.609 375.158 612.142 375.158C611.676 375.158 611.216 375.021 610.801 374.759L609.917 374.113C609.55 373.834 609.239 373.456 609.008 373.008C608.777 372.56 608.632 372.053 608.584 371.527C608.584 370.652 609.189 370.367 609.917 370.899Z" fill="#455A64"/>
<path d="M609.917 377.022L610.801 377.649C611.213 377.911 611.67 378.048 612.134 378.048C612.598 378.048 613.055 377.911 613.467 377.649L617.095 375.082C617.839 374.569 618.444 374.854 618.444 375.748C618.4 376.276 618.255 376.784 618.02 377.23C617.786 377.676 617.469 378.048 617.095 378.315L613.483 380.882C613.064 381.128 612.606 381.256 612.142 381.256C611.678 381.256 611.22 381.128 610.801 380.882L609.917 380.254C609.55 379.975 609.239 379.598 609.008 379.15C608.777 378.702 608.632 378.195 608.584 377.668C608.584 376.775 609.189 376.489 609.917 377.022Z" fill="#455A64"/>
<path d="M607.22 371.051V377.916L610.321 380.083V371.165L608.77 370.024C608.621 369.891 608.445 369.813 608.261 369.798C608.077 369.783 607.894 369.832 607.732 369.939C607.57 370.046 607.435 370.208 607.345 370.405C607.254 370.601 607.211 370.826 607.22 371.051Z" fill="#455A64"/>
</svg>
