<svg width="700" height="700" viewBox="0 0 700 700" fill="none" xmlns="http://www.w3.org/2000/svg">
<path d="M700 615.149H0V615.619H700V615.149Z" fill="#EBEBEB"/>
<path d="M629.86 645.381H583.492V645.85H629.86V645.381Z" fill="#EBEBEB"/>
<path d="M377.804 639.65H335.496V640.12H377.804V639.65Z" fill="#EBEBEB"/>
<path d="M582.092 627.945H484.246V628.414H582.092V627.945Z" fill="#EBEBEB"/>
<path d="M307.44 631.101H73.444V631.571H307.44V631.101Z" fill="#EBEBEB"/>
<path d="M328.762 631.101H319.9V631.571H328.762V631.101Z" fill="#EBEBEB"/>
<path d="M331.8 531.351H61.474C59.3562 531.346 57.3265 530.213 55.8304 528.202C54.3343 526.19 53.494 523.464 53.494 520.622V10.6345C53.5124 7.80872 54.3608 5.10679 55.855 3.11561C57.3491 1.12444 59.3683 0.00484075 61.474 0H331.8C333.92 0 335.953 1.13032 337.453 3.1423C338.952 5.15428 339.794 7.8831 339.794 10.7285V520.622C339.794 523.468 338.952 526.196 337.453 528.208C335.953 530.22 333.92 531.351 331.8 531.351ZM61.474 0.37578C59.4491 0.380757 57.5084 1.46378 56.0779 3.38713C54.6474 5.31048 53.844 7.91699 53.844 10.6345V520.622C53.844 523.34 54.6474 525.946 56.0779 527.87C57.5084 529.793 59.4491 530.876 61.474 530.881H331.8C333.826 530.876 335.768 529.794 337.201 527.871C338.634 525.948 339.44 523.341 339.444 520.622V10.6345C339.44 7.91526 338.634 5.3088 337.201 3.38598C335.768 1.46317 333.826 0.380747 331.8 0.37578H61.474Z" fill="#EBEBEB"/>
<path d="M634.634 531.351H364.294C362.175 531.346 360.144 530.214 358.646 528.203C357.147 526.192 356.304 523.466 356.3 520.622V10.6345C356.322 7.80701 357.174 5.10509 358.67 3.11444C360.166 1.12378 362.187 0.00478796 364.294 0H634.634C636.737 0.00977869 638.753 1.13156 640.244 3.12221C641.735 5.11285 642.582 7.81197 642.6 10.6345V520.622C642.6 523.461 641.762 526.184 640.269 528.195C638.775 530.206 636.749 531.341 634.634 531.351ZM364.294 0.37578C362.268 0.380747 360.326 1.46317 358.893 3.38598C357.46 5.3088 356.654 7.91526 356.65 10.6345V520.622C356.654 523.341 357.46 525.948 358.893 527.871C360.326 529.794 362.268 530.876 364.294 530.881H634.634C636.66 530.876 638.602 529.794 640.035 527.871C641.468 525.948 642.274 523.341 642.278 520.622V10.6345C642.274 7.91526 641.468 5.3088 640.035 3.38598C638.602 1.46317 636.66 0.380747 634.634 0.37578H364.294Z" fill="#EBEBEB"/>
<path d="M484.162 383.444C534.268 451.798 517.37 513.182 483.518 606.168C482.412 609.156 481.362 612.162 480.256 615.149H563.696C589.708 537.269 588.322 421.097 513.198 318.585C471.632 261.861 468.608 235.406 468.398 231.724C470.372 227.402 479.416 220.732 487.494 218.985C500.36 216.129 509.586 195.668 507.962 173.121C506.338 150.574 494.69 134.491 481.74 136.99C476.728 137.967 432.446 148.489 422.772 209.102C412.146 275.784 452.746 340.512 484.162 383.444Z" fill="#EBEBEB"/>
<path d="M333.2 293.708L480.522 316.424C492.996 318.303 505.106 309.153 511.826 292.656C519.162 274.675 525.182 251.828 516.124 238.375C512.404 232.773 509.552 226.232 507.735 219.135C505.918 212.039 505.172 204.527 505.54 197.039C508.214 139.884 490.784 68.542 435.54 62.4168C404.264 58.9409 393.26 88.3267 390.348 120.287C387.646 150.123 369.446 170.171 350.518 164.008C333.858 158.56 319.046 164.929 320.236 206.096C320.824 226.181 313.88 245.026 302.414 254.233C285.908 267.46 276.752 289.349 333.2 293.708Z" fill="#E0E0E0"/>
<path d="M221.732 611.542C222.978 612.819 224.238 614.003 225.526 615.149H498.232C522.438 600.663 534.632 586.966 518.238 578.887C503.636 571.653 489.874 554.893 482.552 534.958C473.2 509.668 445.284 506.342 420.14 509.18C398.804 511.547 373.408 488.268 362.964 455.969C351.848 421.623 330.19 386.601 288.162 388.329C221.2 391.223 199.864 452.813 212.94 520.716C216.986 541.684 213.402 560.812 202.972 570.15C193.354 578.793 208.306 597.788 221.732 611.542Z" fill="#FAFAFA"/>
<path d="M36.974 612.369C37.5156 613.341 38.1 614.27 38.724 615.149H248.178C271.474 604.026 285.264 593.504 275.31 587.285C266.434 581.743 261.31 568.872 262.136 553.559C263.2 534.131 242.788 531.576 222.572 533.718C205.422 535.597 193.452 517.672 195.972 492.871C198.576 466.473 193.298 439.586 160.44 440.957C137.818 441.566 115.912 451.713 97.8256 469.96C79.7393 488.206 66.3897 513.628 59.6679 542.624C55.986 558.726 47.0679 573.419 35.9939 580.578C25.8019 587.229 31.122 601.809 36.974 612.369Z" fill="#E6E6E6"/>
<path d="M405.902 398.814L638.4 322.512C650.51 320.633 661.444 309.604 667.898 290.721C672.784 276.385 674.198 260.527 661.626 252.41C647.15 243.016 636.594 224.734 631.582 203.183C619.668 151.946 578.382 99.8443 499.394 110.422C458.444 115.89 444.444 139.038 442.414 164.91C439.348 203.841 416.822 232.55 389.48 232.964C366.59 233.283 347.956 241.776 350.798 269.771C352.149 282.869 350.856 296.213 347.054 308.412C343.252 320.61 337.08 331.216 329.182 339.121C312.62 355.543 328.342 410.876 405.902 398.814Z" fill="#F5F5F5"/>
<path d="M289.501 111.906C307.609 101.84 316.209 73.9775 308.708 49.6746C301.207 25.3717 280.446 13.8309 262.338 23.8975C244.229 33.9641 235.63 61.8261 243.131 86.129C250.632 110.432 271.392 121.973 289.501 111.906Z" fill="#F0F0F0"/>
<path d="M263.536 54.4879C279.454 40.8095 276.136 27.77 242.802 30.3629C209.468 32.9558 204.064 53.323 204.064 53.323C204.064 53.323 153.664 50.8428 157.864 65.2727C129.122 68.6735 121.282 72.0179 141.064 73.7653L285.516 60.3312C285.516 60.3312 290.668 51.3877 263.536 54.4879Z" fill="#FAFAFA"/>
<path d="M94.122 193.3L172.844 185.973C172.844 185.973 203.28 171.731 184.128 172.05C198.716 160.946 208.6 143.472 178.304 145.915C148.008 148.357 138.166 172.088 138.166 172.088C138.166 172.088 108.556 159.574 97.566 184.883C90.412 185.559 55.748 196.87 94.122 193.3Z" fill="#F5F5F5"/>
<path d="M513.002 63.5065L570.528 58.2456C570.528 58.2456 592.774 47.8366 578.774 48.0621C589.442 39.9452 596.666 27.1688 574.574 28.9537C552.482 30.7387 545.244 48.0808 545.244 48.0808C545.244 48.0808 523.614 38.9306 515.578 57.4753C510.3 57.8511 484.96 66.1182 513.002 63.5065Z" fill="#F5F5F5"/>
<path d="M350 700C499.915 700 621.446 690.478 621.446 678.731C621.446 666.984 499.915 657.462 350 657.462C200.085 657.462 78.554 666.984 78.554 678.731C78.554 690.478 200.085 700 350 700Z" fill="#F5F5F5"/>
<path d="M242.732 117.224C240.786 105.462 228.83 89.6796 221.956 83.8551C215.082 78.0305 214.34 104.974 215.782 114.331C217.224 123.688 222.096 136.445 226.982 139.527C221.998 141.406 208.964 158.316 217.84 164.516C226.716 170.716 237.874 162.355 237.874 162.355L242.732 117.224Z" fill="#407BFF"/>
<path d="M256.34 179.134L256.06 177.255C257.927 176.805 259.666 175.674 261.086 173.985L262.024 175.395C260.417 177.31 258.452 178.602 256.34 179.134Z" fill="#407BFF"/>
<path d="M265.748 166.094L264.348 165.756C264.941 159.513 264.06 153.178 261.828 147.643L263.06 146.76C265.454 152.662 266.395 159.43 265.748 166.094Z" fill="#407BFF"/>
<path d="M244.062 117.487C248.752 106.946 263.942 96.2556 271.894 93.2118C279.846 90.168 274.33 118.558 270.27 126.468C266.21 134.378 261.296 143.942 255.864 145.069C260.176 148.677 265.342 170.04 255.388 172.689C245.434 175.338 237.902 162.355 237.902 162.355L244.062 117.487Z" fill="#407BFF"/>
<path d="M236.726 163.257L240.52 115.402C240.542 114.607 240.797 113.857 241.23 113.315C241.663 112.773 242.238 112.483 242.83 112.508L245.098 112.94C245.38 113.031 245.645 113.198 245.877 113.432C246.108 113.665 246.302 113.961 246.445 114.299C246.588 114.637 246.678 115.012 246.709 115.398C246.739 115.785 246.711 116.176 246.624 116.548L238.798 163.652C238.462 165.681 236.6 165.343 236.726 163.257Z" fill="#263238"/>
<path d="M243.404 115.495L242.564 115.157C242.564 115.026 245.728 100.333 238.882 95.0719L239.316 94.0385C246.764 99.7691 243.6 114.857 243.404 115.495Z" fill="#263238"/>
<path d="M245 115.665L244.132 115.514C244.216 114.631 246.316 94.0386 254.898 93.5125V94.6774C247.142 95.1659 245.07 115.458 245 115.665Z" fill="#263238"/>
<path d="M154.42 218.985C154.518 211.469 159.614 200.459 162.82 196.175C166.026 191.891 171.99 206.772 171.962 212.728C171.934 218.684 166.964 228.924 164.598 231.31C167.398 231.987 175.7 241.25 171.472 245.984C167.244 250.719 160.636 246.605 160.636 246.605L154.42 218.985Z" fill="#407BFF"/>
<path opacity="0.3" d="M154.42 218.985C154.518 211.469 159.614 200.459 162.82 196.175C166.026 191.891 171.99 206.772 171.962 212.728C171.934 218.684 166.964 228.924 164.598 231.31C167.398 231.987 175.7 241.25 171.472 245.984C167.244 250.719 160.636 246.605 160.636 246.605L154.42 218.985Z" fill="white"/>
<path d="M153.734 219.267C150.388 213.179 141.442 207.993 136.934 206.904C132.426 205.814 134.708 223.231 137.508 227.759C140.308 232.287 146.65 237.436 149.632 237.605C147.63 240.273 146.594 254.064 152.11 254.74C157.626 255.417 160.594 246.605 160.594 246.605L153.734 219.267Z" fill="#407BFF"/>
<path opacity="0.3" d="M153.734 219.267C150.388 213.179 141.442 207.993 136.934 206.904C132.426 205.814 134.708 223.231 137.508 227.759C140.308 232.287 146.65 237.436 149.632 237.605C147.63 240.273 146.594 254.064 152.11 254.74C157.626 255.417 160.594 246.605 160.594 246.605L153.734 219.267Z" fill="white"/>
<path d="M161.35 247.037L155.904 217.538C155.874 217.293 155.807 217.059 155.709 216.849C155.611 216.639 155.482 216.457 155.331 216.314C155.18 216.17 155.01 216.069 154.829 216.014C154.649 215.96 154.462 215.954 154.28 215.998L152.88 216.524C152.545 216.722 152.28 217.089 152.144 217.545C152.008 218.002 152.011 218.512 152.152 218.966L160.062 247.525C160.412 248.747 161.588 248.314 161.35 247.037Z" fill="#263238"/>
<path d="M154.112 217.952C153.944 217.482 150.066 206.039 154.364 201.605L154.714 202.188C150.752 206.265 154.574 217.538 154.616 217.651L154.112 217.952Z" fill="#263238"/>
<path d="M153.09 218.196C153.09 218.196 151.55 207.655 146.622 208.238V207.505C152.04 206.828 153.622 217.613 153.622 218.064L153.09 218.196Z" fill="#263238"/>
<path d="M266.504 286.493C266.504 280.086 262.108 271.03 259.378 267.573C256.648 264.116 251.468 277.155 251.468 282.228C251.468 287.301 255.668 295.719 257.74 297.616C255.332 298.349 248.164 306.748 251.79 310.506C255.416 314.263 261.1 310.374 261.1 310.374L266.504 286.493Z" fill="#407BFF"/>
<path opacity="0.7" d="M266.504 286.493C266.504 280.086 262.108 271.03 259.378 267.573C256.648 264.116 251.468 277.155 251.468 282.228C251.468 287.301 255.668 295.719 257.74 297.616C255.332 298.349 248.164 306.748 251.79 310.506C255.416 314.263 261.1 310.374 261.1 310.374L266.504 286.493Z" fill="white"/>
<path d="M265.384 286.493C267.848 281.289 274.988 277.475 278.642 276.911C282.296 276.347 281.246 291.942 279.146 295.7C277.046 299.458 272.062 303.573 269.598 303.441C271.39 306.053 272.888 318.66 268.366 318.735C263.844 318.81 260.988 310.525 260.988 310.525L265.384 286.493Z" fill="#407BFF"/>
<path opacity="0.7" d="M265.384 286.493C267.848 281.289 274.988 277.475 278.642 276.911C282.296 276.347 281.246 291.942 279.146 295.7C277.046 299.458 272.062 303.573 269.598 303.441C271.39 306.053 272.888 318.66 268.366 318.735C263.844 318.81 260.988 310.525 260.988 310.525L265.384 286.493Z" fill="white"/>
<path d="M260.4 310.788L265.16 281.308C265.328 280.218 265.986 279.429 266.56 279.767L267.764 280.293C268.078 280.515 268.319 280.888 268.436 281.338C268.552 281.788 268.538 282.281 268.394 282.717L261.478 311.276C261.268 312.497 260.246 312.065 260.4 310.788Z" fill="#263238"/>
<path d="M266.798 281.665L266.322 281.42C266.322 281.289 269.71 269.997 266.238 265.882L266.574 265.375C270.326 269.79 266.938 281.195 266.798 281.665Z" fill="#263238"/>
<path d="M267.694 281.947L267.19 281.834C267.19 281.383 268.59 270.561 273.378 271.293V271.97C269.024 271.406 267.708 281.834 267.694 281.947Z" fill="#263238"/>
<path d="M442.4 223.945L440.496 214.701L429.996 226.557C432.04 228.573 434.172 230.423 436.38 232.099C437.177 232.704 438.118 232.866 439.003 232.55C439.888 232.233 440.645 231.465 441.112 230.408L441.966 228.53C442.265 227.844 442.458 227.085 442.533 226.297C442.607 225.509 442.562 224.709 442.4 223.945Z" fill="#B55B52"/>
<path d="M430.78 204.705L425.992 218.121L430.024 226.557L440.524 214.701L430.78 204.705Z" fill="#B55B52"/>
<path d="M447.017 185.309L419.693 180.566C416.564 180.023 413.7 182.986 413.295 187.185L411.191 209.024C410.786 213.222 412.994 217.066 416.123 217.609L443.447 222.353C446.576 222.896 449.44 219.932 449.845 215.733L451.949 193.895C452.354 189.696 450.146 185.852 447.017 185.309Z" fill="#263238"/>
<path d="M466.788 289.782C460.362 289.782 448.504 282.473 433.188 265.713C416.542 247.431 418.124 233.077 419.272 222.498C419.83 219.211 419.902 215.808 419.482 212.484L420.952 211.939C421.445 215.537 421.388 219.232 420.784 222.799C419.622 233.358 418.18 246.511 434.154 264.135C454.524 286.512 467.39 290.552 470.008 286.287C471.702 283.544 469.35 275.934 460.208 265.619C449.96 254.158 449.442 236.609 449.078 223.814C449.108 220.025 448.821 216.243 448.224 212.54L449.624 211.92C450.285 215.808 450.6 219.788 450.562 223.776C450.926 236.196 451.402 253.2 461.146 264.078C470.078 274.055 473.914 283.055 471.156 287.546C470.594 288.325 469.912 288.929 469.157 289.315C468.402 289.702 467.594 289.861 466.788 289.782Z" fill="#263238"/>
<path d="M441.826 192.305L433.902 188.791C433.456 188.57 433.077 188.157 432.823 187.617C432.57 187.077 432.457 186.439 432.502 185.804L433.118 179.303C433.145 179.024 433.219 178.758 433.333 178.523C433.447 178.288 433.599 178.09 433.778 177.944C433.956 177.798 434.157 177.708 434.365 177.679C434.573 177.651 434.783 177.686 434.98 177.781L442.904 181.294C443.349 181.518 443.727 181.931 443.98 182.471C444.232 183.011 444.346 183.647 444.304 184.282L443.674 190.783C443.646 191.059 443.573 191.323 443.46 191.556C443.346 191.79 443.196 191.986 443.019 192.132C442.842 192.277 442.643 192.369 442.437 192.398C442.231 192.428 442.022 192.396 441.826 192.305Z" fill="#263238"/>
<path d="M438.718 180.843L434.14 178.814C433.882 178.691 433.663 178.455 433.516 178.146C433.369 177.836 433.303 177.47 433.328 177.104L433.678 173.347C433.691 173.184 433.732 173.027 433.798 172.889C433.863 172.751 433.951 172.635 434.055 172.55C434.159 172.465 434.277 172.412 434.398 172.397C434.52 172.382 434.642 172.405 434.756 172.463L439.32 174.493C439.581 174.616 439.804 174.854 439.954 175.167C440.104 175.48 440.171 175.851 440.146 176.221L439.782 179.979C439.772 180.141 439.733 180.298 439.669 180.436C439.605 180.574 439.517 180.69 439.414 180.774C439.31 180.858 439.193 180.908 439.072 180.92C438.951 180.932 438.83 180.906 438.718 180.843Z" fill="#263238"/>
<path d="M383.796 176.845L370.925 174.611C368.801 174.242 366.857 176.254 366.582 179.105L364.484 200.869C364.21 203.719 365.709 206.329 367.833 206.698L380.704 208.932C382.828 209.301 384.772 207.289 385.047 204.438L387.145 182.674C387.419 179.823 385.92 177.214 383.796 176.845Z" fill="black"/>
<path d="M396.54 182.204L382.517 179.77C378.928 179.147 375.642 182.546 375.178 187.362L374.363 195.822C373.899 200.638 376.432 205.048 380.02 205.671L394.043 208.105C397.632 208.728 400.918 205.329 401.382 200.512L402.197 192.053C402.661 187.236 400.128 182.827 396.54 182.204Z" fill="#263238"/>
<path d="M380.016 206.19C379.112 206.036 378.24 205.641 377.451 205.027C376.663 204.414 375.973 203.596 375.424 202.62C374.866 201.656 374.455 200.555 374.215 199.378C373.975 198.201 373.91 196.972 374.024 195.762L374.85 187.307C375.101 184.871 376.054 182.664 377.504 181.16C378.955 179.657 380.786 178.976 382.606 179.265C382.656 179.274 382.704 179.295 382.747 179.329C382.79 179.362 382.828 179.407 382.859 179.46C382.889 179.513 382.912 179.574 382.925 179.639C382.938 179.704 382.941 179.771 382.935 179.838C382.929 179.905 382.912 179.969 382.887 180.027C382.863 180.085 382.829 180.137 382.79 180.178C382.75 180.219 382.705 180.249 382.656 180.266C382.608 180.284 382.558 180.288 382.508 180.28C380.886 180.003 379.248 180.601 377.954 181.943C376.66 183.285 375.815 185.262 375.606 187.438L374.78 195.893C374.581 198.071 375.029 200.266 376.028 202.003C377.026 203.74 378.494 204.88 380.114 205.175C380.165 205.179 380.214 205.198 380.259 205.229C380.304 205.261 380.343 205.304 380.375 205.357C380.406 205.41 380.429 205.472 380.442 205.537C380.455 205.603 380.458 205.672 380.45 205.739C380.436 205.875 380.383 205.999 380.302 206.083C380.22 206.167 380.118 206.206 380.016 206.19Z" fill="white"/>
<path d="M403.677 182.813L392.778 180.921C390.983 180.609 389.341 182.309 389.109 184.717L387.332 203.146C387.1 205.554 388.367 207.758 390.161 208.07L401.06 209.962C402.855 210.273 404.497 208.574 404.729 206.166L406.506 187.737C406.738 185.329 405.471 183.124 403.677 182.813Z" fill="#263238"/>
<path d="M406.272 183.274L395.373 181.382C393.579 181.07 391.936 182.77 391.704 185.178L389.928 203.607C389.696 206.015 390.962 208.219 392.757 208.531L403.656 210.423C405.45 210.734 407.093 209.035 407.325 206.627L409.101 188.198C409.333 185.79 408.067 183.585 406.272 183.274Z" fill="black"/>
<path d="M417.024 187.802L405.167 185.743C402.13 185.216 399.35 188.092 398.957 192.168L398.268 199.323C397.875 203.398 400.018 207.129 403.055 207.656L414.912 209.715C417.949 210.242 420.729 207.366 421.121 203.29L421.811 196.135C422.204 192.06 420.061 188.329 417.024 187.802Z" fill="#263238"/>
<path d="M403.06 208.162C401.504 207.886 400.093 206.794 399.135 205.125C398.177 203.456 397.751 201.346 397.95 199.257L398.636 192.098C398.842 190.01 399.655 188.116 400.899 186.83C402.143 185.545 403.715 184.973 405.272 185.24C405.321 185.247 405.369 185.267 405.412 185.3C405.456 185.332 405.493 185.376 405.523 185.429C405.554 185.481 405.575 185.542 405.588 185.606C405.6 185.671 405.602 185.738 405.594 185.804C405.58 185.937 405.529 186.057 405.451 186.141C405.373 186.225 405.274 186.266 405.174 186.255C403.818 186.025 402.449 186.524 401.366 187.644C400.283 188.763 399.573 190.411 399.392 192.229L398.706 199.388C398.535 201.208 398.907 203.045 399.741 204.499C400.575 205.952 401.803 206.904 403.158 207.148C403.207 207.155 403.255 207.175 403.298 207.207C403.342 207.24 403.379 207.284 403.41 207.337C403.44 207.389 403.461 207.45 403.474 207.514C403.486 207.579 403.488 207.646 403.48 207.712C403.477 207.779 403.463 207.845 403.44 207.906C403.416 207.966 403.384 208.019 403.344 208.061C403.305 208.104 403.259 208.135 403.21 208.152C403.161 208.17 403.11 208.173 403.06 208.162Z" fill="white"/>
<path opacity="0.6" d="M446.221 189.642L439.473 188.471C438.707 188.337 438.004 189.064 437.905 190.093L437.385 195.497C437.285 196.526 437.827 197.468 438.593 197.601L445.341 198.772C446.108 198.905 446.81 198.179 446.909 197.15L447.43 191.746C447.529 190.717 446.988 189.775 446.221 189.642Z" fill="#407BFF"/>
<path d="M421.499 180.879L419.694 180.566C416.565 180.023 413.701 182.986 413.296 187.185L411.192 209.023C410.787 213.222 412.995 217.066 416.124 217.609L417.929 217.923C421.057 218.466 423.922 215.502 424.326 211.304L426.431 189.465C426.836 185.266 424.627 181.422 421.499 180.879Z" fill="black"/>
<path d="M440.076 251.264H439.684C439.328 251.266 438.972 251.304 438.62 251.377C422.072 266.22 440.832 277.381 437.528 273.604L438.102 273.792H438.312H438.382H438.144L437.43 273.679L435.904 273.435C434.868 273.266 433.846 273.059 432.824 272.853C430.766 272.458 428.708 272.007 426.664 271.537C422.548 270.598 418.46 269.414 414.372 268.08C405.802 265.446 397.534 261.281 389.788 255.698C387.595 254.026 385.523 252.082 383.6 249.893C383.096 249.291 382.592 248.671 382.102 248.014L381.36 246.962L381.178 246.699L380.814 246.135C380.363 245.416 379.977 244.628 379.666 243.786C379.123 242.355 378.786 240.8 378.672 239.202C378.644 238.576 378.644 237.949 378.672 237.323C378.672 236.778 378.672 236.308 378.77 235.801C378.928 234.363 379.214 232.956 379.624 231.611C380.193 229.812 380.887 228.088 381.696 226.463C382.41 225.035 383.096 223.757 383.824 222.555C385.193 220.244 386.651 218.03 388.192 215.922C394.003 207.935 400.338 200.665 407.12 194.202L412.86 202.432C407.974 210.774 402.934 219.192 398.51 227.477C397.418 229.544 396.382 231.63 395.472 233.621C395.044 234.546 394.651 235.499 394.296 236.477C394.034 237.136 393.837 237.837 393.708 238.563C393.708 238.713 393.708 238.751 393.806 238.281C393.814 238.112 393.814 237.943 393.806 237.774C393.827 237.499 393.827 237.222 393.806 236.947C393.74 236.018 393.545 235.113 393.232 234.279C393.031 233.733 392.782 233.222 392.49 232.757C392.266 232.419 392.364 232.569 392.392 232.588L392.462 232.682L392.784 233.077C393.022 233.34 393.26 233.603 393.526 233.866C394.754 235.054 396.056 236.098 397.418 236.985C400.593 239.07 403.895 240.786 407.288 242.114C410.816 243.58 414.498 244.82 418.222 245.872C421.946 246.924 425.754 247.939 429.562 248.859C431.466 249.31 433.384 249.724 435.302 250.099L438.186 250.682L439.586 250.982L440.356 251.133L440.874 251.245H441.126H441.434L442.05 251.452C438.76 247.694 457.534 258.855 440.972 273.698C440.606 273.776 440.236 273.82 439.866 273.83H439.138L440.076 251.264Z" fill="#B55B52"/>
<path d="M413.434 183.06H418.6L416.808 192.455L407.148 187.795L408.828 185.634C410.058 184.01 411.709 183.088 413.434 183.06Z" fill="#B55B52"/>
<path d="M404.684 200.534L407.092 187.758L416.752 192.417C416.752 192.417 416.682 207.805 409.234 207.016L404.684 200.534Z" fill="#B55B52"/>
<path d="M483.322 280.218C482.482 280.631 482.146 280.744 481.628 280.969L480.228 281.477C479.346 281.777 478.464 282.04 477.596 282.247C475.86 282.698 474.152 282.942 472.458 283.168C469.107 283.513 465.739 283.481 462.392 283.074C459.091 282.709 455.815 282.012 452.592 280.988C450.996 280.518 449.428 279.917 447.888 279.278L446.726 278.809L446.054 278.527C445.69 278.377 445.312 278.207 444.948 278.02C443.57 277.276 442.282 276.263 441.126 275.013C439.289 272.961 437.764 270.454 436.632 267.629C435.718 265.367 434.963 262.996 434.378 260.546C433.417 256.256 432.77 251.851 432.446 247.394C431.819 239.026 431.923 230.589 432.754 222.254H441.154C442.086 229.67 443.311 237.014 444.822 244.256C445.508 247.562 446.398 250.786 447.482 253.895C447.92 255.152 448.45 256.347 449.064 257.464C449.375 258.114 449.81 258.639 450.324 258.986C450.408 258.986 450.408 258.986 450.324 258.855C450.24 258.723 450.324 258.855 450.324 258.855H450.478H450.73L451.71 259.099L453.67 259.55L455.644 259.888C456.946 260.189 458.248 260.264 459.55 260.452C460.852 260.64 462.14 260.696 463.414 260.696C465.947 260.78 468.481 260.655 471.002 260.32C472.22 260.151 473.438 259.945 474.6 259.663L476.294 259.231L477.05 259.005C477.246 259.005 477.624 258.78 477.47 258.874L483.322 280.218Z" fill="#B55B52"/>
<path d="M473.886 207.054C471.338 222.292 470.708 233.64 473.004 245.665C473.004 245.665 470.442 256.807 455.224 256.807C438.424 256.807 447.538 245.665 447.538 245.665C456.764 242.734 456.792 233.621 455.434 225.091L473.886 207.054Z" fill="#B55B52"/>
<path d="M476 252.561C477.302 249.028 478.8 245.045 476 243.711C473.032 242.321 456.61 240.911 450.87 243.523C449.336 244.064 448.021 245.389 447.208 247.216C446.394 249.042 446.145 251.224 446.516 253.293L476 252.561Z" fill="#263238"/>
<path d="M554.176 659.867C555.097 659.114 555.955 658.232 556.738 657.236C556.779 657.181 556.807 657.11 556.82 657.034C556.832 656.957 556.828 656.878 556.808 656.804C556.79 656.733 556.757 656.671 556.711 656.628C556.666 656.584 556.612 656.56 556.556 656.56C556.024 656.56 551.39 656.335 550.564 658.044C550.478 658.237 550.432 658.458 550.432 658.683C550.432 658.908 550.478 659.129 550.564 659.322C550.673 659.678 550.847 659.991 551.07 660.234C551.292 660.477 551.556 660.641 551.838 660.712C552.665 660.784 553.487 660.486 554.176 659.867ZM555.8 657.312C554.204 659.19 552.776 660.149 551.922 659.942C551.731 659.888 551.552 659.772 551.401 659.605C551.25 659.438 551.131 659.225 551.054 658.984C550.956 658.702 551.054 658.552 551.054 658.458C551.474 657.612 553.952 657.293 555.8 657.312Z" fill="#407BFF"/>
<path d="M556.682 657.274C556.729 657.239 556.768 657.187 556.794 657.124C556.821 657.064 556.836 656.996 556.836 656.926C556.836 656.857 556.821 656.788 556.794 656.729C556.71 656.56 554.708 652.633 552.888 652.22C552.669 652.169 552.445 652.178 552.228 652.246C552.012 652.314 551.808 652.439 551.628 652.614C551.442 652.765 551.3 652.995 551.224 653.268C551.148 653.541 551.142 653.84 551.208 654.117C551.656 655.884 555.114 657.368 556.556 657.33C556.601 657.328 556.645 657.308 556.682 657.274ZM552.076 653.14C552.29 652.984 552.537 652.931 552.776 652.99C553.938 653.253 555.296 655.395 555.94 656.504C554.372 656.222 552.006 654.906 551.74 653.854C551.74 653.76 551.67 653.535 551.964 653.234L552.076 653.14Z" fill="#407BFF"/>
<path d="M569.576 650.266L561.428 659.153L542.038 632.416L550.172 623.529L569.576 650.266Z" fill="#B55B52"/>
<path d="M557.48 655.733L567.826 646.113C568.006 645.941 568.226 645.86 568.446 645.884C568.666 645.908 568.873 646.036 569.03 646.245L574.994 656.635C575.17 656.873 575.306 657.16 575.391 657.475C575.477 657.79 575.51 658.127 575.489 658.461C575.467 658.796 575.392 659.12 575.268 659.411C575.144 659.703 574.974 659.954 574.77 660.149C571.545 663.134 568.199 665.875 564.746 668.359C561.792 670.614 559.538 679.877 549.416 679.877C544.824 679.877 543.284 674.973 545.216 674.24C555.17 670.163 555.45 662.967 556.416 657.95C556.559 657.063 556.937 656.275 557.48 655.733Z" fill="#263238"/>
<path d="M427.196 379.78H487.2C487.886 368.714 484.694 319.149 491.624 267.047C491.941 264.602 491.876 262.095 491.434 259.686C490.991 257.276 490.179 255.017 489.051 253.05C487.923 251.084 486.503 249.454 484.88 248.263C483.258 247.073 481.468 246.348 479.626 246.135C477.918 245.909 476.168 245.722 474.418 245.609C465.936 244.96 457.434 244.96 448.952 245.609C445.186 246.079 441.49 246.886 438.494 247.676C433.622 248.972 429.072 253.594 428.344 260.189C423.822 300.867 427.196 379.743 427.196 379.743" fill="#407BFF"/>
<path d="M439.334 371.87H421.624C420.708 371.895 419.799 371.653 418.959 371.162C418.119 370.67 417.368 369.941 416.757 369.024C416.147 368.106 415.692 367.023 415.422 365.847C415.153 364.672 415.077 363.432 415.198 362.213L417.2 336.528C417.45 333.907 418.391 331.493 419.852 329.722C421.313 327.95 423.198 326.939 425.166 326.871H442.876C443.792 326.847 444.701 327.088 445.541 327.58C446.381 328.071 447.132 328.8 447.743 329.718C448.353 330.635 448.808 331.719 449.078 332.894C449.347 334.07 449.423 335.309 449.302 336.528L447.23 362.213C446.987 364.821 446.059 367.228 444.611 368.998C443.163 370.769 441.292 371.788 439.334 371.87Z" fill="#263238"/>
<path d="M442.932 326.927L439.334 371.927C441.302 371.862 443.186 370.851 444.646 369.079C446.105 367.306 447.042 364.89 447.286 362.269L449.4 336.528C449.515 335.309 449.433 334.07 449.158 332.898C448.884 331.725 448.424 330.646 447.809 329.734C447.195 328.822 446.441 328.099 445.599 327.615C444.758 327.13 443.848 326.896 442.932 326.927Z" fill="black"/>
<path d="M447.832 336.848C447.686 336.851 447.543 336.792 447.423 336.681C447.304 336.569 447.213 336.41 447.163 336.226C447.114 336.042 447.109 335.842 447.148 335.653C447.188 335.465 447.27 335.298 447.384 335.176C447.776 334.743 486.584 292.055 478.954 246.379C478.933 246.258 478.931 246.133 478.946 246.011C478.962 245.888 478.995 245.772 479.045 245.667C479.094 245.562 479.159 245.471 479.235 245.4C479.31 245.329 479.396 245.278 479.486 245.252C479.575 245.224 479.668 245.221 479.758 245.242C479.848 245.263 479.934 245.308 480.011 245.375C480.088 245.442 480.154 245.528 480.206 245.63C480.258 245.731 480.294 245.845 480.312 245.966C488.11 292.788 448.672 336.153 448.266 336.641C448.142 336.772 447.99 336.845 447.832 336.848Z" fill="#263238"/>
<path d="M443.198 328.618H422.436C421.741 328.636 421.055 328.84 420.42 329.22C419.553 330.105 418.828 331.214 418.287 332.483C417.746 333.751 417.4 335.152 417.27 336.604L416.304 348.535C416.902 349.098 417.617 349.394 418.348 349.38H439.11C440.466 349.239 441.757 348.536 442.803 347.368C443.848 346.2 444.598 344.625 444.948 342.86L446.474 335.194C447.174 331.568 445.704 328.618 443.198 328.618Z" fill="black"/>
<path d="M439.25 347.708H418.488C415.982 347.708 414.512 344.758 415.212 341.15L416.724 333.485C417.078 331.718 417.83 330.141 418.878 328.97C419.925 327.8 421.217 327.093 422.576 326.946H443.338C445.844 326.946 447.314 329.915 446.6 333.503L445.088 341.169C444.735 342.933 443.985 344.508 442.94 345.678C441.895 346.849 440.606 347.557 439.25 347.708Z" fill="#263238"/>
<path opacity="0.2" d="M427.21 273.567C426.692 281.552 426.37 290.27 426.188 299.176C432.866 289.218 437.416 276.817 427.21 273.567Z" fill="black"/>
<path d="M441.238 277.625C433.286 287.17 417.088 274.562 417.088 274.562L412.258 243.41C412.258 243.41 430.192 243.41 444.22 245.74C459.886 248.22 450.184 266.803 441.238 277.625Z" fill="#407BFF"/>
<g opacity="0.2">
<path opacity="0.2" d="M550.172 623.529L542.038 632.435L552.034 646.207L560.182 637.301L550.172 623.529Z" fill="black"/>
</g>
<path d="M438.102 379.78C438.102 379.78 457.856 464.894 463.61 507.94C469.896 555.081 544.558 643.953 544.558 643.953L558.474 626.554C558.474 626.554 512.484 544.221 497.084 512.223C493.808 461.493 487.116 379.78 487.116 379.78H438.102Z" fill="#263238"/>
<path d="M538.832 642.243L545.342 648.687L562.87 628.508L558.18 621.481L538.832 642.243Z" fill="#407BFF"/>
<path opacity="0.2" d="M447.832 423.634C449.414 431.037 451.066 438.928 452.69 446.951C461.538 429.477 462.756 408.227 462.756 408.227L447.832 423.634Z" fill="black"/>
<path d="M445.732 192.098C445.606 193.3 445.032 194.202 444.444 194.127C443.856 194.052 443.478 193 443.604 191.816C443.73 190.632 444.318 189.693 444.906 189.787C445.494 189.881 445.858 190.895 445.732 192.098Z" fill="#263238"/>
<path d="M445.116 194.221C443.652 197.758 441.844 201.018 439.74 203.916C441.14 206.114 443.94 205.57 443.94 205.57L445.116 194.221Z" fill="#A02724"/>
<path d="M445.382 184.244C445.301 184.21 445.228 184.149 445.169 184.067C445.11 183.985 445.068 183.884 445.046 183.774C445.027 183.683 445.022 183.588 445.03 183.494C445.039 183.399 445.062 183.309 445.097 183.226C445.132 183.144 445.179 183.072 445.235 183.015C445.292 182.957 445.356 182.915 445.424 182.891C446.244 182.659 447.094 182.697 447.901 183.001C448.708 183.305 449.448 183.867 450.058 184.639C450.108 184.705 450.148 184.784 450.175 184.871C450.202 184.958 450.216 185.052 450.216 185.146C450.216 185.24 450.202 185.334 450.175 185.421C450.148 185.508 450.108 185.587 450.058 185.653C450.01 185.72 449.952 185.773 449.888 185.809C449.825 185.845 449.756 185.863 449.687 185.863C449.618 185.863 449.549 185.845 449.486 185.809C449.422 185.773 449.364 185.72 449.316 185.653C448.834 185.046 448.251 184.6 447.616 184.352C446.981 184.104 446.312 184.06 445.662 184.225C445.574 184.278 445.474 184.284 445.382 184.244Z" fill="#263238"/>
<path d="M476 193.676C473.76 208.332 473.018 217.05 466.634 223.851C464.594 226.099 462.135 227.554 459.523 228.06C456.911 228.566 454.245 228.102 451.815 226.721C449.385 225.339 447.283 223.091 445.737 220.22C444.191 217.35 443.26 213.966 443.044 210.436C442.078 196.851 445.844 175.169 457.31 170.772C459.755 169.733 462.36 169.575 464.865 170.315C467.37 171.055 469.685 172.666 471.579 174.987C473.473 177.308 474.878 180.257 475.654 183.537C476.43 186.818 476.55 190.314 476 193.676Z" fill="#B55B52"/>
<path d="M451.234 200.741L446.446 201.304C446.446 201.304 445.732 192.098 449.498 186.875C446.978 186.254 444.668 180.918 445.088 173.553C445.522 165.756 454.37 153.524 460.796 161.378C467.712 169.833 481.306 171.806 478.604 176.954C482.58 175.958 491.988 193.582 482.58 202.225C473.172 210.868 476.364 219.267 471.884 222.686C467.404 226.106 452.592 222.573 451.234 200.741Z" fill="#263238"/>
<path d="M478.156 177.255C478.156 177.255 480.088 174.868 477.904 169.739C481.082 171.975 480.438 176.409 478.156 177.255Z" fill="#263238"/>
<path d="M456.54 200.328C455.911 203.974 454.441 207.261 452.34 209.722C449.54 212.954 447.258 210.323 447.328 205.964C447.328 201.962 448.924 195.461 452.088 193.939C455.252 192.417 457.24 195.931 456.54 200.328Z" fill="#B55B52"/>
<path d="M346.514 664.451C347.595 664.412 348.67 664.217 349.72 663.869C349.775 663.85 349.825 663.809 349.863 663.752C349.902 663.695 349.927 663.625 349.936 663.549C349.945 663.473 349.937 663.395 349.914 663.326C349.89 663.256 349.852 663.196 349.804 663.155C349.356 662.779 345.408 659.529 344.05 660.468C343.901 660.57 343.775 660.726 343.689 660.919C343.602 661.112 343.558 661.333 343.56 661.558C343.524 661.942 343.561 662.333 343.666 662.694C343.771 663.055 343.942 663.375 344.162 663.625C344.854 664.25 345.683 664.541 346.514 664.451ZM348.88 663.324C346.794 663.869 345.198 663.775 344.526 663.023C344.379 662.85 344.267 662.63 344.199 662.385C344.13 662.139 344.108 661.874 344.134 661.614C344.131 661.521 344.146 661.429 344.178 661.346C344.21 661.264 344.257 661.194 344.316 661.145C345.016 660.675 347.27 662.065 348.88 663.249V663.324Z" fill="#407BFF"/>
<path d="M349.65 663.869C349.7 663.888 349.754 663.888 349.804 663.869C349.848 663.831 349.883 663.777 349.905 663.714C349.927 663.651 349.936 663.581 349.93 663.512C349.93 663.305 349.636 658.57 348.208 657.011C348.04 656.817 347.843 656.672 347.631 656.585C347.419 656.497 347.196 656.47 346.976 656.504C346.757 656.507 346.545 656.611 346.377 656.8C346.209 656.988 346.094 657.248 346.052 657.537C345.8 659.416 348.25 662.967 349.51 663.888C349.557 663.902 349.606 663.895 349.65 663.869ZM347.2 657.218C347.446 657.222 347.684 657.342 347.872 657.556C348.71 659.047 349.197 660.839 349.272 662.704C348.012 661.426 346.472 658.702 346.612 657.612C346.612 657.518 346.612 657.293 347.032 657.236H347.2V657.218Z" fill="#407BFF"/>
<path d="M362.824 663.831H351.624L351.512 629.015H362.712L362.824 663.831Z" fill="#B55B52"/>
<path d="M351.75 661.539H364C364.221 661.535 364.435 661.637 364.604 661.826C364.774 662.016 364.887 662.28 364.924 662.572L366.758 675.931C366.801 676.261 366.79 676.6 366.724 676.923C366.659 677.246 366.541 677.546 366.379 677.801C366.217 678.056 366.015 678.259 365.788 678.397C365.561 678.535 365.314 678.604 365.064 678.599C360.654 678.505 354.298 678.148 348.74 678.148C342.258 678.148 341.95 678.637 334.334 678.637C329.742 678.637 328.636 672.399 330.582 671.835C339.416 669.261 341.292 668.979 349.034 662.704C349.846 662 350.784 661.598 351.75 661.539Z" fill="#263238"/>
<path opacity="0.2" d="M351.512 629.015L351.568 646.959H362.768L362.712 629.015H351.512Z" fill="black"/>
<path d="M427.196 379.78C427.196 379.78 350.07 459.934 346.738 505.553C343.28 553.014 347.494 642.938 347.494 642.938H366.464C366.464 642.938 377.286 549.67 379.484 502.829C420.868 448.341 465.976 432.897 478.604 379.78H427.196Z" fill="#263238"/>
<path d="M344.134 632.792C344.05 632.792 344.904 643.37 344.904 643.37H367.976L368.872 633.976L344.134 632.792Z" fill="#407BFF"/>
</svg>
